G04*
G04 #@! TF.GenerationSoftware,Altium Limited,Altium Designer,24.10.1 (45)*
G04*
G04 Layer_Color=32768*
%FSLAX25Y25*%
%MOIN*%
G70*
G04*
G04 #@! TF.SameCoordinates,1420DF00-72CD-4D5B-91A3-ABC5A96F1CF7*
G04*
G04*
G04 #@! TF.FilePolarity,Positive*
G04*
G01*
G75*
%ADD14C,0.00394*%
%ADD47C,0.00197*%
D14*
X198819Y110236D02*
X202756D01*
X200787Y108268D02*
Y112205D01*
X149606Y108268D02*
Y112205D01*
X147638Y110236D02*
X151575D01*
X108268Y187008D02*
Y190945D01*
X106299Y188976D02*
X110236D01*
D47*
X195571Y175295D02*
Y224311D01*
X184350Y175295D02*
X195571D01*
X184350D02*
Y224311D01*
X195571D01*
X87598Y114469D02*
X103346D01*
X87598D02*
Y115630D01*
X78228D02*
X87598D01*
X78228D02*
Y122559D01*
X87598D01*
Y123720D01*
X103346D01*
Y122559D02*
Y123720D01*
Y122559D02*
X112717D01*
Y115630D02*
Y122559D01*
X103346Y115630D02*
X112717D01*
X103346Y114469D02*
Y115630D01*
X87598Y130217D02*
X103346D01*
X87598D02*
Y131378D01*
X78228D02*
X87598D01*
X78228D02*
Y138307D01*
X87598D01*
Y139469D01*
X103346D01*
Y138307D02*
Y139469D01*
Y138307D02*
X112717D01*
Y131378D02*
Y138307D01*
X103346Y131378D02*
X112717D01*
X103346Y130217D02*
Y131378D01*
X87598Y145965D02*
X103346D01*
X87598D02*
Y147126D01*
X78228D02*
X87598D01*
X78228D02*
Y154055D01*
X87598D01*
Y155217D01*
X103346D01*
Y154055D02*
Y155217D01*
Y154055D02*
X112717D01*
Y147126D02*
Y154055D01*
X103346Y147126D02*
X112717D01*
X103346Y145965D02*
Y147126D01*
X185827Y73622D02*
Y119685D01*
Y119685D02*
X215748D01*
Y73622D02*
Y119685D01*
X185827Y73622D02*
X215748D01*
X129724D02*
X169488D01*
Y73622D02*
Y119685D01*
X129724Y119685D02*
X169488D01*
X129724Y73622D02*
Y119685D01*
X71654Y213780D02*
X117717D01*
Y164173D02*
Y213780D01*
X71654Y164173D02*
X117717D01*
X71654D02*
Y213780D01*
M02*
