M48
;Layer_Color=9474304
;FILE_FORMAT=2:4
INCH,TZ
;TYPE=PLATED
T01F00S00C0.0295
T02F00S00C0.0320
T03F00S00C0.0354
T04F00S00C0.0394
T05F00S00C0.0417
T06F00S00C0.0453
T07F00S00C0.1083
%
T01
X8169Y11909
Y13484
Y15059
X10925
Y13484
Y11909
T02
X13378Y14211
X14378
X13878Y14961
T03
X19587Y11024
X20571
X20791Y26665
X21791
X22791
X23791
X24791
X25791
Y27665
X26791
Y26665
X27791
Y27665
X28791
Y26665
X24791Y27665
X23791
X22791
X21791
X20791
X19791
Y26665
X18791
Y27665
X17791
Y26665
X16791
Y27665
X15791
Y26665
X14791
Y27665
X13791
Y26665
X12791
Y27665
X11791
Y26665
X10791
Y27665
X9791
Y26665
X10827Y20374
Y19390
Y18406
Y17421
T04
X15846Y14468
X16846
X17346Y17480
Y22480
X14346
Y19480
Y17480
X9161Y23425
X8161
T05
X18996Y17941
Y22020
T06
X13976Y11024
X14961
X15945
T07
X7874Y7874
X30709
Y27165
X7874
M30
