G04*
G04 #@! TF.GenerationSoftware,Altium Limited,Altium Designer,24.10.1 (45)*
G04*
G04 Layer_Color=65535*
%FSLAX25Y25*%
%MOIN*%
G70*
G04*
G04 #@! TF.SameCoordinates,1420DF00-72CD-4D5B-91A3-ABC5A96F1CF7*
G04*
G04*
G04 #@! TF.FilePolarity,Positive*
G04*
G01*
G75*
%ADD10C,0.00591*%
%ADD11C,0.00500*%
%ADD12C,0.00984*%
%ADD13C,0.00787*%
%ADD14C,0.00394*%
%ADD15C,0.00600*%
%ADD16C,0.01000*%
D10*
X170133Y149407D02*
G03*
X155579Y147517I-6786J-4722D01*
G01*
Y141853D02*
G03*
X170133Y139963I7768J2832D01*
G01*
X93283Y238974D02*
G03*
X78728Y237084I-6786J-4722D01*
G01*
Y231420D02*
G03*
X93283Y229530I7768J2832D01*
G01*
X170133Y148425D02*
Y149407D01*
Y139963D02*
Y140945D01*
X93283Y237992D02*
Y238974D01*
Y229530D02*
Y230512D01*
D11*
X128319Y141191D02*
G03*
X130505Y135642I10460J915D01*
G01*
X135710Y152148D02*
G03*
X128319Y141191I3070J-10041D01*
G01*
X147054Y135642D02*
G03*
X141849Y152147I-8274J6464D01*
G01*
X189961Y190650D02*
X194587D01*
X185335D02*
X189961D01*
X185335Y208957D02*
X189961D01*
X194587D01*
X185335Y206791D02*
X194587D01*
X185335Y190650D02*
Y206791D01*
Y208957D01*
X194587Y206791D02*
Y208957D01*
Y190650D02*
Y206791D01*
X189961Y183799D02*
Y190650D01*
Y208957D02*
Y215807D01*
X100079Y115453D02*
X102362D01*
Y119094D01*
Y122736D01*
X100079D02*
X102362D01*
Y119094D02*
X105512D01*
X88583Y115453D02*
Y119094D01*
Y122736D01*
Y115453D02*
X90866D01*
X88583Y122736D02*
X90866D01*
X85433Y119094D02*
X88583D01*
X100079Y131201D02*
X102362D01*
Y134843D01*
Y138484D01*
X100079D02*
X102362D01*
Y134843D02*
X105512D01*
X88583Y131201D02*
Y134843D01*
Y138484D01*
Y131201D02*
X90866D01*
X88583Y138484D02*
X90866D01*
X85433Y134843D02*
X88583D01*
X100079Y146949D02*
X102362D01*
Y150591D01*
Y154232D01*
X100079D02*
X102362D01*
Y150591D02*
X105512D01*
X88583Y146949D02*
Y150591D01*
Y154232D01*
Y146949D02*
X90866D01*
X88583Y154232D02*
X90866D01*
X85433Y150591D02*
X88583D01*
X130533Y135606D02*
X147026D01*
X128327Y141106D02*
X129907D01*
X137652D02*
X139907D01*
X147652D02*
X149232D01*
D12*
X196358Y121852D02*
G03*
X196358Y121852I-492J0D01*
G01*
X140256D02*
G03*
X140256Y121852I-492J0D01*
G01*
X120375Y203740D02*
G03*
X120375Y203740I-492J0D01*
G01*
X173760Y165945D02*
G03*
X173760Y165945I-492J0D01*
G01*
D13*
X186220Y74016D02*
Y119291D01*
X215354D01*
Y74016D02*
Y119291D01*
X186220Y74016D02*
X215354D01*
X130118D02*
X169094D01*
X130118D02*
Y119291D01*
X130130D01*
X130118D02*
X169094D01*
Y74016D02*
Y119291D01*
X72047Y164567D02*
X117323D01*
Y213386D01*
Y213374D02*
Y213386D01*
X72047D02*
X117323D01*
X72047Y164567D02*
Y213386D01*
X138780Y168307D02*
X178150D01*
Y231299D01*
X138780D02*
X178150D01*
X138780Y168307D02*
Y231299D01*
D14*
X152806Y146006D02*
Y143307D01*
X151457Y144657D02*
X154156D01*
X75956Y235573D02*
Y232874D01*
X74606Y234224D02*
X77305D01*
D15*
X97500Y254016D02*
Y255182D01*
Y254599D01*
X94001D01*
X94584Y254016D01*
X107084D02*
X106501Y254599D01*
Y255765D01*
X107084Y256348D01*
X107667D01*
X108251Y255765D01*
Y255182D01*
Y255765D01*
X108834Y256348D01*
X109417D01*
X110000Y255765D01*
Y254599D01*
X109417Y254016D01*
X116501Y256348D02*
Y254016D01*
X118251D01*
X117667Y255182D01*
Y255765D01*
X118251Y256348D01*
X119417D01*
X120000Y255765D01*
Y254599D01*
X119417Y254016D01*
X126501D02*
Y256348D01*
X127084D01*
X129417Y254016D01*
X130000D01*
X139417D02*
X140000Y254599D01*
Y255765D01*
X139417Y256348D01*
X137084D01*
X136501Y255765D01*
Y254599D01*
X137084Y254016D01*
X137667D01*
X138251Y254599D01*
Y256348D01*
X150000Y254016D02*
Y255182D01*
Y254599D01*
X146501D01*
X147084Y254016D01*
X150000Y256931D02*
Y258098D01*
Y257515D01*
X146501D01*
X147084Y256931D01*
X160000Y254016D02*
Y255182D01*
Y254599D01*
X156501D01*
X157084Y254016D01*
Y256931D02*
X156501Y257515D01*
Y258681D01*
X157084Y259264D01*
X157667D01*
X158251Y258681D01*
Y258098D01*
Y258681D01*
X158834Y259264D01*
X159417D01*
X160000Y258681D01*
Y257515D01*
X159417Y256931D01*
X170000Y254016D02*
Y255182D01*
Y254599D01*
X166501D01*
X167084Y254016D01*
X166501Y259264D02*
Y256931D01*
X168251D01*
X167667Y258098D01*
Y258681D01*
X168251Y259264D01*
X169417D01*
X170000Y258681D01*
Y257515D01*
X169417Y256931D01*
X180000Y254016D02*
Y255182D01*
Y254599D01*
X176501D01*
X177084Y254016D01*
X176501Y256931D02*
Y259264D01*
X177084D01*
X179417Y256931D01*
X180000D01*
X190000Y254016D02*
Y255182D01*
Y254599D01*
X186501D01*
X187084Y254016D01*
X189417Y256931D02*
X190000Y257515D01*
Y258681D01*
X189417Y259264D01*
X187084D01*
X186501Y258681D01*
Y257515D01*
X187084Y256931D01*
X187667D01*
X188251Y257515D01*
Y259264D01*
X200000Y256348D02*
Y254016D01*
X197667Y256348D01*
X197084D01*
X196501Y255765D01*
Y254599D01*
X197084Y254016D01*
X200000Y257515D02*
Y258681D01*
Y258098D01*
X196501D01*
X197084Y257515D01*
X210000Y256348D02*
Y254016D01*
X207667Y256348D01*
X207084D01*
X206501Y255765D01*
Y254599D01*
X207084Y254016D01*
Y257515D02*
X206501Y258098D01*
Y259264D01*
X207084Y259847D01*
X207667D01*
X208251Y259264D01*
Y258681D01*
Y259264D01*
X208834Y259847D01*
X209417D01*
X210000Y259264D01*
Y258098D01*
X209417Y257515D01*
X220000Y256348D02*
Y254016D01*
X217667Y256348D01*
X217084D01*
X216501Y255765D01*
Y254599D01*
X217084Y254016D01*
X216501Y259847D02*
Y257515D01*
X218251D01*
X217667Y258681D01*
Y259264D01*
X218251Y259847D01*
X219417D01*
X220000Y259264D01*
Y258098D01*
X219417Y257515D01*
X230000Y256348D02*
Y254016D01*
X227667Y256348D01*
X227084D01*
X226501Y255765D01*
Y254599D01*
X227084Y254016D01*
X226501Y257515D02*
Y259847D01*
X227084D01*
X229417Y257515D01*
X230000D01*
X240000Y256348D02*
Y254016D01*
X237667Y256348D01*
X237084D01*
X236501Y255765D01*
Y254599D01*
X237084Y254016D01*
X239417Y257515D02*
X240000Y258098D01*
Y259264D01*
X239417Y259847D01*
X237084D01*
X236501Y259264D01*
Y258098D01*
X237084Y257515D01*
X237667D01*
X238251Y258098D01*
Y259847D01*
X247084Y254016D02*
X246501Y254599D01*
Y255765D01*
X247084Y256348D01*
X247667D01*
X248251Y255765D01*
Y255182D01*
Y255765D01*
X248834Y256348D01*
X249417D01*
X250000Y255765D01*
Y254599D01*
X249417Y254016D01*
X250000Y257515D02*
Y258681D01*
Y258098D01*
X246501D01*
X247084Y257515D01*
X257084Y254016D02*
X256501Y254599D01*
Y255765D01*
X257084Y256348D01*
X257667D01*
X258251Y255765D01*
Y255182D01*
Y255765D01*
X258834Y256348D01*
X259417D01*
X260000Y255765D01*
Y254599D01*
X259417Y254016D01*
X257084Y257515D02*
X256501Y258098D01*
Y259264D01*
X257084Y259847D01*
X257667D01*
X258251Y259264D01*
Y258681D01*
Y259264D01*
X258834Y259847D01*
X259417D01*
X260000Y259264D01*
Y258098D01*
X259417Y257515D01*
X267084Y254016D02*
X266501Y254599D01*
Y255765D01*
X267084Y256348D01*
X267667D01*
X268251Y255765D01*
Y255182D01*
Y255765D01*
X268834Y256348D01*
X269417D01*
X270000Y255765D01*
Y254599D01*
X269417Y254016D01*
X266501Y259847D02*
Y257515D01*
X268251D01*
X267667Y258681D01*
Y259264D01*
X268251Y259847D01*
X269417D01*
X270000Y259264D01*
Y258098D01*
X269417Y257515D01*
X277084Y254016D02*
X276501Y254599D01*
Y255765D01*
X277084Y256348D01*
X277667D01*
X278251Y255765D01*
Y255182D01*
Y255765D01*
X278834Y256348D01*
X279417D01*
X280000Y255765D01*
Y254599D01*
X279417Y254016D01*
X276501Y257515D02*
Y259847D01*
X277084D01*
X279417Y257515D01*
X280000D01*
X287084Y254016D02*
X286501Y254599D01*
Y255765D01*
X287084Y256348D01*
X287667D01*
X288251Y255765D01*
Y255182D01*
Y255765D01*
X288834Y256348D01*
X289417D01*
X290000Y255765D01*
Y254599D01*
X289417Y254016D01*
Y257515D02*
X290000Y258098D01*
Y259264D01*
X289417Y259847D01*
X287084D01*
X286501Y259264D01*
Y258098D01*
X287084Y257515D01*
X287667D01*
X288251Y258098D01*
Y259847D01*
D16*
X75122Y115345D02*
X69124D01*
Y118343D01*
X70124Y119343D01*
X72123D01*
X73123Y118343D01*
Y115345D01*
Y117344D02*
X75122Y119343D01*
X70124Y121343D02*
X69124Y122342D01*
Y124342D01*
X70124Y125341D01*
X71124D01*
X72123Y124342D01*
Y123342D01*
Y124342D01*
X73123Y125341D01*
X74123D01*
X75122Y124342D01*
Y122342D01*
X74123Y121343D01*
X75122Y131093D02*
X69124D01*
Y134092D01*
X70124Y135091D01*
X72123D01*
X73123Y134092D01*
Y131093D01*
Y133092D02*
X75122Y135091D01*
Y141089D02*
Y137091D01*
X71124Y141089D01*
X70124D01*
X69124Y140090D01*
Y138090D01*
X70124Y137091D01*
X75122Y146841D02*
X69124D01*
Y149840D01*
X70124Y150839D01*
X72123D01*
X73123Y149840D01*
Y146841D01*
Y148840D02*
X75122Y150839D01*
Y152839D02*
Y154838D01*
Y153838D01*
X69124D01*
X70124Y152839D01*
X122047Y140717D02*
Y144716D01*
X121048Y145716D01*
X119048D01*
X118049Y144716D01*
Y140717D01*
X119048Y139717D01*
X121048D01*
X120048Y141717D02*
X122047Y139717D01*
X121048D02*
X122047Y140717D01*
X124047Y139717D02*
X126046D01*
X125046D01*
Y145716D01*
X124047Y144716D01*
X195789Y124954D02*
Y130952D01*
X198788D01*
X199788Y129952D01*
Y127953D01*
X198788Y126953D01*
X195789D01*
X201787Y129952D02*
X202787Y130952D01*
X204786D01*
X205786Y129952D01*
Y128952D01*
X204786Y127953D01*
X203786D01*
X204786D01*
X205786Y126953D01*
Y125953D01*
X204786Y124954D01*
X202787D01*
X201787Y125953D01*
X145592Y123969D02*
Y129967D01*
X148591D01*
X149591Y128968D01*
Y126969D01*
X148591Y125969D01*
X145592D01*
X155589Y123969D02*
X151590D01*
X155589Y127968D01*
Y128968D01*
X154589Y129967D01*
X152590D01*
X151590Y128968D01*
X122001Y192975D02*
X127999D01*
Y189976D01*
X126999Y188976D01*
X125000D01*
X124000Y189976D01*
Y192975D01*
X122001Y186977D02*
Y184978D01*
Y185977D01*
X127999D01*
X126999Y186977D01*
X139015Y241051D02*
Y235053D01*
Y237052D01*
X143013Y241051D01*
X140014Y238052D01*
X143013Y235053D01*
X145013D02*
X147012D01*
X146012D01*
Y241051D01*
X145013Y240052D01*
X88506Y251030D02*
Y245033D01*
X91505D01*
X92504Y246032D01*
Y250031D01*
X91505Y251030D01*
X88506D01*
X94504Y250031D02*
X95503Y251030D01*
X97503D01*
X98502Y250031D01*
Y249031D01*
X97503Y248031D01*
X96503D01*
X97503D01*
X98502Y247032D01*
Y246032D01*
X97503Y245033D01*
X95503D01*
X94504Y246032D01*
X156419Y162448D02*
Y156450D01*
X159418D01*
X160418Y157449D01*
Y161448D01*
X159418Y162448D01*
X156419D01*
X166416Y156450D02*
X162417D01*
X166416Y160449D01*
Y161448D01*
X165416Y162448D01*
X163417D01*
X162417Y161448D01*
X185962Y233314D02*
Y227316D01*
X188961D01*
X189961Y228316D01*
Y232314D01*
X188961Y233314D01*
X185962D01*
X191960Y227316D02*
X193959D01*
X192960D01*
Y233314D01*
X191960Y232314D01*
M02*
