G04*
G04 #@! TF.GenerationSoftware,Altium Limited,Altium Designer,24.10.1 (45)*
G04*
G04 Layer_Color=255*
%FSLAX25Y25*%
%MOIN*%
G70*
G04*
G04 #@! TF.SameCoordinates,1420DF00-72CD-4D5B-91A3-ABC5A96F1CF7*
G04*
G04*
G04 #@! TF.FilePolarity,Positive*
G04*
G01*
G75*
%ADD29C,0.06102*%
%ADD30R,0.06102X0.06102*%
%ADD34C,0.23622*%
%ADD35R,0.06260X0.06260*%
%ADD36C,0.06260*%
%ADD37C,0.05906*%
%ADD38R,0.05906X0.05906*%
%ADD39C,0.04953*%
%ADD40C,0.05200*%
%ADD41C,0.05512*%
%ADD42R,0.05512X0.05512*%
%ADD43C,0.06496*%
%ADD44R,0.06496X0.06496*%
%ADD45R,0.05512X0.05512*%
D29*
X173465Y224803D02*
D03*
X143465D02*
D03*
Y194803D02*
D03*
Y174803D02*
D03*
D30*
X173465D02*
D03*
D34*
X307087Y78740D02*
D03*
Y271654D02*
D03*
X78740Y78740D02*
D03*
Y271654D02*
D03*
D35*
X189961Y220197D02*
D03*
D36*
Y179409D02*
D03*
D37*
X257913Y266654D02*
D03*
Y276654D02*
D03*
X267913Y266654D02*
D03*
Y276654D02*
D03*
X277913Y266654D02*
D03*
Y276654D02*
D03*
X287913Y266654D02*
D03*
Y276654D02*
D03*
X247913D02*
D03*
Y266654D02*
D03*
X237913Y276654D02*
D03*
Y266654D02*
D03*
X227913Y276654D02*
D03*
Y266654D02*
D03*
X217913Y276654D02*
D03*
Y266654D02*
D03*
X207913Y276654D02*
D03*
Y266654D02*
D03*
X197913Y276654D02*
D03*
Y266654D02*
D03*
X187913Y276654D02*
D03*
Y266654D02*
D03*
X177913Y276654D02*
D03*
Y266654D02*
D03*
X167913Y276654D02*
D03*
Y266654D02*
D03*
X157913Y276654D02*
D03*
Y266654D02*
D03*
X147913Y276654D02*
D03*
Y266654D02*
D03*
X137913Y276654D02*
D03*
Y266654D02*
D03*
X127913Y276654D02*
D03*
Y266654D02*
D03*
X117913Y276654D02*
D03*
Y266654D02*
D03*
X107913Y276654D02*
D03*
Y266654D02*
D03*
X97913Y276654D02*
D03*
X158465Y144685D02*
D03*
X168465D02*
D03*
X81614Y234252D02*
D03*
X91614D02*
D03*
D38*
X97913Y266654D02*
D03*
D39*
X109252Y119094D02*
D03*
X81693D02*
D03*
X109252Y134843D02*
D03*
X81693D02*
D03*
X109252Y150591D02*
D03*
X81693D02*
D03*
D40*
X143780Y142106D02*
D03*
X138780Y149606D02*
D03*
X133780Y142106D02*
D03*
D41*
X205709Y110236D02*
D03*
X108268Y174213D02*
D03*
Y193898D02*
D03*
Y184055D02*
D03*
D42*
X195866Y110236D02*
D03*
D43*
X159449D02*
D03*
X149606D02*
D03*
D44*
X139764D02*
D03*
D45*
X108268Y203740D02*
D03*
M02*
