G04*
G04 #@! TF.GenerationSoftware,Altium Limited,Altium Designer,24.10.1 (45)*
G04*
G04 Layer_Color=16711935*
%FSLAX25Y25*%
%MOIN*%
G70*
G04*
G04 #@! TF.SameCoordinates,1420DF00-72CD-4D5B-91A3-ABC5A96F1CF7*
G04*
G04*
G04 #@! TF.FilePolarity,Positive*
G04*
G01*
G75*
%ADD13C,0.00787*%
G36*
X158465Y202893D02*
X156495D01*
X156499Y202890D01*
X156514Y202872D01*
X156535Y202850D01*
X156561Y202813D01*
X156594Y202773D01*
X156630Y202722D01*
X156670Y202664D01*
X156710Y202599D01*
Y202595D01*
X156714Y202591D01*
X156728Y202570D01*
X156746Y202533D01*
X156768Y202489D01*
X156794Y202438D01*
X156819Y202384D01*
X156845Y202329D01*
X156867Y202275D01*
X156568D01*
Y202278D01*
X156561Y202286D01*
X156557Y202300D01*
X156546Y202318D01*
X156535Y202340D01*
X156521Y202366D01*
X156484Y202428D01*
X156444Y202500D01*
X156394Y202573D01*
X156335Y202650D01*
X156273Y202726D01*
X156270Y202730D01*
X156266Y202733D01*
X156255Y202744D01*
X156244Y202759D01*
X156208Y202792D01*
X156164Y202835D01*
X156113Y202879D01*
X156055Y202926D01*
X155997Y202966D01*
X155935Y203003D01*
Y203203D01*
X158465D01*
Y202893D01*
D02*
G37*
G36*
Y201445D02*
X157194Y200549D01*
X157591Y200138D01*
X158465D01*
Y199803D01*
X155946D01*
Y200138D01*
X157198D01*
X155946Y201383D01*
Y201838D01*
X156969Y200782D01*
X158465Y201885D01*
Y201445D01*
D02*
G37*
D13*
X138386Y167913D02*
X178543D01*
Y231693D01*
X138386D02*
X178543D01*
X138386Y167913D02*
Y231693D01*
M02*
