G04*
G04 #@! TF.GenerationSoftware,Altium Limited,Altium Designer,24.10.1 (45)*
G04*
G04 Layer_Color=16711935*
%FSLAX25Y25*%
%MOIN*%
G70*
G04*
G04 #@! TF.SameCoordinates,1420DF00-72CD-4D5B-91A3-ABC5A96F1CF7*
G04*
G04*
G04 #@! TF.FilePolarity,Positive*
G04*
G01*
G75*
%ADD11C,0.00500*%
%ADD14C,0.00394*%
%ADD49C,0.01041*%
D11*
X141850Y152148D02*
G03*
X135710Y152148I-3070J-10041D01*
G01*
X189961Y179409D02*
Y190650D01*
Y208957D02*
Y220197D01*
Y190650D02*
X194587D01*
X185335D02*
X189961D01*
X185335Y208957D02*
X189961D01*
X194587D01*
X185335Y206791D02*
X194587D01*
X185335Y190650D02*
Y206791D01*
Y208957D01*
X194587Y206791D02*
Y208957D01*
Y190650D02*
Y206791D01*
X88583Y115453D02*
X102362D01*
X88583D02*
Y119094D01*
Y122736D01*
X102362D01*
Y119094D02*
Y122736D01*
Y115453D02*
Y119094D01*
X106988D01*
X83957D02*
X88583D01*
Y131201D02*
X102362D01*
X88583D02*
Y134843D01*
Y138484D01*
X102362D01*
Y134843D02*
Y138484D01*
Y131201D02*
Y134843D01*
X106988D01*
X83957D02*
X88583D01*
Y146949D02*
X102362D01*
X88583D02*
Y150591D01*
Y154232D01*
X102362D01*
Y150591D02*
Y154232D01*
Y146949D02*
Y150591D01*
X106988D01*
X83957D02*
X88583D01*
X129907Y141106D02*
X137652D01*
X139907D02*
X147652D01*
D14*
X186220Y74016D02*
Y119291D01*
X215354D01*
Y74016D02*
Y119291D01*
X186220Y74016D02*
X215354D01*
X130118D02*
X169094D01*
Y119291D01*
X130118D02*
X169094D01*
X130118Y74016D02*
Y119291D01*
X72047Y213386D02*
X117323D01*
Y164567D02*
Y213386D01*
X72047Y164567D02*
X117323D01*
X72047D02*
Y213386D01*
D49*
X139612Y144606D02*
X136279D01*
X139612Y147939D01*
Y148772D01*
X138779Y149605D01*
X137113D01*
X136279Y148772D01*
X130280Y146272D02*
X131113Y147105D01*
X132779D01*
X133612Y146272D01*
Y145439D01*
X132779Y144606D01*
X131946D01*
X132779D01*
X133612Y143772D01*
Y142939D01*
X132779Y142106D01*
X131113D01*
X130280Y142939D01*
X143280Y142106D02*
X144946D01*
X144113D01*
Y147105D01*
X143280Y146272D01*
M02*
