G04*
G04 #@! TF.GenerationSoftware,Altium Limited,Altium Designer,24.10.1 (45)*
G04*
G04 Layer_Physical_Order=1*
G04 Layer_Color=255*
%FSLAX25Y25*%
%MOIN*%
G70*
G04*
G04 #@! TF.SameCoordinates,1420DF00-72CD-4D5B-91A3-ABC5A96F1CF7*
G04*
G04*
G04 #@! TF.FilePolarity,Positive*
G04*
G01*
G75*
%ADD16C,0.01000*%
%ADD29C,0.06102*%
%ADD30R,0.06102X0.06102*%
%ADD31C,0.02000*%
%ADD32C,0.02500*%
%ADD33C,0.01500*%
%ADD34C,0.23622*%
%ADD35R,0.06260X0.06260*%
%ADD36C,0.06260*%
%ADD37C,0.05906*%
%ADD38R,0.05906X0.05906*%
%ADD39C,0.04953*%
%ADD40C,0.05200*%
%ADD41C,0.05512*%
%ADD42R,0.05512X0.05512*%
%ADD43C,0.06496*%
%ADD44R,0.06496X0.06496*%
%ADD45R,0.05512X0.05512*%
G36*
X309930Y230687D02*
X284452D01*
Y230618D01*
X284244D01*
Y230549D01*
X284105D01*
Y230479D01*
X283966D01*
Y230410D01*
X283897D01*
Y230340D01*
X283828D01*
Y230271D01*
X283689D01*
Y230201D01*
X283619D01*
Y230063D01*
X283550D01*
Y229993D01*
X283481D01*
Y229924D01*
X283411D01*
Y229785D01*
X283342D01*
Y229646D01*
X283272D01*
Y229438D01*
X283203D01*
Y208473D01*
X283272D01*
Y208264D01*
X283342D01*
Y208125D01*
X283411D01*
Y207987D01*
X283481D01*
Y207917D01*
X283550D01*
Y207848D01*
X283619D01*
Y207709D01*
X283689D01*
Y207640D01*
X283828D01*
Y207570D01*
X283897D01*
Y207501D01*
X283966D01*
Y207431D01*
X284105D01*
Y207362D01*
X284244D01*
Y207292D01*
X284452D01*
Y207223D01*
X309930D01*
Y203821D01*
X284244D01*
Y203891D01*
X283828D01*
Y203960D01*
X283550D01*
Y204030D01*
X283272D01*
Y204099D01*
X283064D01*
Y204169D01*
X282925D01*
Y204238D01*
X282717D01*
Y204307D01*
X282578D01*
Y204377D01*
X282439D01*
Y204446D01*
X282300D01*
Y204516D01*
X282231D01*
Y204585D01*
X282092D01*
Y204654D01*
X281953D01*
Y204724D01*
X281884D01*
Y204793D01*
X281814D01*
Y204863D01*
X281676D01*
Y204932D01*
X281606D01*
Y205001D01*
X281537D01*
Y205071D01*
X281467D01*
Y205140D01*
X281398D01*
Y205210D01*
X281328D01*
Y205279D01*
X281259D01*
Y205349D01*
X281190D01*
Y205418D01*
X281120D01*
Y205487D01*
X281051D01*
Y205557D01*
X280981D01*
Y205626D01*
X280912D01*
Y205696D01*
X280842D01*
Y205835D01*
X280773D01*
Y205904D01*
X280704D01*
Y205973D01*
X280634D01*
Y206112D01*
X280565D01*
Y206251D01*
X280495D01*
Y206321D01*
X280426D01*
Y206459D01*
X280357D01*
Y206598D01*
X280287D01*
Y206737D01*
X280218D01*
Y206945D01*
X280148D01*
Y207084D01*
X280079D01*
Y207292D01*
X280009D01*
Y207570D01*
X279940D01*
Y207848D01*
X279871D01*
Y208264D01*
X279801D01*
Y229646D01*
X279871D01*
Y230063D01*
X279940D01*
Y230340D01*
X280009D01*
Y230618D01*
X280079D01*
Y230826D01*
X280148D01*
Y230965D01*
X280218D01*
Y231173D01*
X280287D01*
Y231312D01*
X280357D01*
Y231451D01*
X280426D01*
Y231590D01*
X280495D01*
Y231659D01*
X280565D01*
Y231798D01*
X280634D01*
Y231937D01*
X280704D01*
Y232006D01*
X280773D01*
Y232076D01*
X280842D01*
Y232215D01*
X280912D01*
Y232284D01*
X280981D01*
Y232353D01*
X281051D01*
Y232423D01*
X281120D01*
Y232492D01*
X281190D01*
Y232562D01*
X281259D01*
Y232631D01*
X281328D01*
Y232701D01*
X281398D01*
Y232770D01*
X281467D01*
Y232839D01*
X281537D01*
Y232909D01*
X281606D01*
Y232978D01*
X281676D01*
Y233048D01*
X281814D01*
Y233117D01*
X281884D01*
Y233187D01*
X281953D01*
Y233256D01*
X282092D01*
Y233325D01*
X282231D01*
Y233395D01*
X282300D01*
Y233464D01*
X282439D01*
Y233534D01*
X282578D01*
Y233603D01*
X282717D01*
Y233672D01*
X282925D01*
Y233742D01*
X283064D01*
Y233811D01*
X283272D01*
Y233881D01*
X283550D01*
Y233950D01*
X283828D01*
Y234020D01*
X284244D01*
Y234089D01*
X309930D01*
Y230687D01*
D02*
G37*
G36*
X270360Y234020D02*
X270776D01*
Y233950D01*
X271054D01*
Y233881D01*
X271332D01*
Y233811D01*
X271540D01*
Y233742D01*
X271679D01*
Y233672D01*
X271887D01*
Y233603D01*
X272026D01*
Y233534D01*
X272165D01*
Y233464D01*
X272304D01*
Y233395D01*
X272373D01*
Y233325D01*
X272512D01*
Y233256D01*
X272651D01*
Y233187D01*
X272720D01*
Y233117D01*
X272790D01*
Y233048D01*
X272928D01*
Y232978D01*
X272998D01*
Y232909D01*
X273067D01*
Y232839D01*
X273137D01*
Y232770D01*
X273206D01*
Y232701D01*
X273275D01*
Y232631D01*
X273345D01*
Y232562D01*
X273414D01*
Y232492D01*
X273484D01*
Y232423D01*
X273553D01*
Y232353D01*
X273623D01*
Y232284D01*
X273692D01*
Y232215D01*
X273762D01*
Y232076D01*
X273831D01*
Y232006D01*
X273900D01*
Y231868D01*
X273970D01*
Y231798D01*
X274039D01*
Y231659D01*
X274109D01*
Y231590D01*
X274178D01*
Y231451D01*
X274247D01*
Y231312D01*
X274317D01*
Y231173D01*
X274386D01*
Y230965D01*
X274456D01*
Y230826D01*
X274525D01*
Y230618D01*
X274594D01*
Y230340D01*
X274664D01*
Y230063D01*
X274733D01*
Y229646D01*
X274803D01*
Y203821D01*
X271401D01*
Y214859D01*
X248006D01*
Y203821D01*
X244605D01*
Y229646D01*
X244674D01*
Y230063D01*
X244743D01*
Y230340D01*
X244813D01*
Y230618D01*
X244882D01*
Y230826D01*
X244952D01*
Y230965D01*
X245021D01*
Y231173D01*
X245091D01*
Y231312D01*
X245160D01*
Y231451D01*
X245229D01*
Y231590D01*
X245299D01*
Y231659D01*
X245368D01*
Y231798D01*
X245438D01*
Y231937D01*
X245507D01*
Y232006D01*
X245577D01*
Y232076D01*
X245646D01*
Y232215D01*
X245715D01*
Y232284D01*
X245785D01*
Y232353D01*
X245854D01*
Y232423D01*
X245924D01*
Y232492D01*
X245993D01*
Y232562D01*
X246062D01*
Y232631D01*
X246132D01*
Y232701D01*
X246201D01*
Y232770D01*
X246271D01*
Y232839D01*
X246340D01*
Y232909D01*
X246410D01*
Y232978D01*
X246479D01*
Y233048D01*
X246618D01*
Y233117D01*
X246687D01*
Y233187D01*
X246757D01*
Y233256D01*
X246896D01*
Y233325D01*
X247034D01*
Y233395D01*
X247104D01*
Y233464D01*
X247243D01*
Y233534D01*
X247381D01*
Y233603D01*
X247520D01*
Y233672D01*
X247728D01*
Y233742D01*
X247867D01*
Y233811D01*
X248076D01*
Y233881D01*
X248353D01*
Y233950D01*
X248631D01*
Y234020D01*
X249047D01*
Y234089D01*
X270360D01*
Y234020D01*
D02*
G37*
G36*
X235788D02*
X236205D01*
Y233950D01*
X236482D01*
Y233881D01*
X236760D01*
Y233811D01*
X236968D01*
Y233742D01*
X237107D01*
Y233672D01*
X237315D01*
Y233603D01*
X237454D01*
Y233534D01*
X237593D01*
Y233464D01*
X237732D01*
Y233395D01*
X237801D01*
Y233325D01*
X237940D01*
Y233256D01*
X238079D01*
Y233187D01*
X238148D01*
Y233117D01*
X238218D01*
Y233048D01*
X238357D01*
Y232978D01*
X238426D01*
Y232909D01*
X238495D01*
Y232839D01*
X238565D01*
Y232770D01*
X238634D01*
Y232701D01*
X238704D01*
Y232631D01*
X238773D01*
Y232562D01*
X238843D01*
Y232492D01*
X238912D01*
Y232423D01*
X238981D01*
Y232353D01*
X239051D01*
Y232284D01*
X239120D01*
Y232215D01*
X239190D01*
Y232076D01*
X239259D01*
Y232006D01*
X239329D01*
Y231868D01*
X239398D01*
Y231798D01*
X239467D01*
Y231659D01*
X239537D01*
Y231590D01*
X239606D01*
Y231451D01*
X239676D01*
Y231312D01*
X239745D01*
Y231173D01*
X239814D01*
Y230965D01*
X239884D01*
Y230826D01*
X239953D01*
Y230618D01*
X240023D01*
Y230340D01*
X240092D01*
Y230063D01*
X240162D01*
Y229646D01*
X240231D01*
Y208264D01*
X240162D01*
Y207848D01*
X240092D01*
Y207570D01*
X240023D01*
Y207292D01*
X239953D01*
Y207084D01*
X239884D01*
Y206945D01*
X239814D01*
Y206737D01*
X239745D01*
Y206598D01*
X239676D01*
Y206459D01*
X239606D01*
Y206321D01*
X239537D01*
Y206251D01*
X239467D01*
Y206112D01*
X239398D01*
Y206043D01*
X239329D01*
Y205904D01*
X239259D01*
Y205835D01*
X239190D01*
Y205696D01*
X239120D01*
Y205626D01*
X239051D01*
Y205557D01*
X238981D01*
Y205487D01*
X238912D01*
Y205418D01*
X238843D01*
Y205349D01*
X238773D01*
Y205279D01*
X238704D01*
Y205210D01*
X238634D01*
Y205140D01*
X238565D01*
Y205071D01*
X238495D01*
Y205001D01*
X238426D01*
Y204932D01*
X238357D01*
Y204863D01*
X238218D01*
Y204793D01*
X238148D01*
Y204724D01*
X238079D01*
Y204654D01*
X237940D01*
Y204585D01*
X237801D01*
Y204516D01*
X237732D01*
Y204446D01*
X237593D01*
Y204377D01*
X237454D01*
Y204307D01*
X237315D01*
Y204238D01*
X237107D01*
Y204169D01*
X236968D01*
Y204099D01*
X236760D01*
Y204030D01*
X236482D01*
Y203960D01*
X236205D01*
Y203891D01*
X235788D01*
Y203821D01*
X210033D01*
Y234089D01*
X235788D01*
Y234020D01*
D02*
G37*
G36*
X309513Y199031D02*
X309444D01*
Y198962D01*
X309375D01*
Y198892D01*
X309305D01*
Y198823D01*
X309236D01*
Y198684D01*
X309166D01*
Y198615D01*
X309097D01*
Y198545D01*
X309028D01*
Y198476D01*
X308958D01*
Y198407D01*
X308889D01*
Y198268D01*
X308819D01*
Y198198D01*
X308750D01*
Y198129D01*
X308680D01*
Y198059D01*
X308611D01*
Y197990D01*
X308541D01*
Y197851D01*
X308472D01*
Y197782D01*
X308403D01*
Y197712D01*
X308333D01*
Y197643D01*
X308264D01*
Y197573D01*
X308194D01*
Y197504D01*
X308125D01*
Y197365D01*
X308056D01*
Y197296D01*
X307986D01*
Y197226D01*
X307917D01*
Y197157D01*
X307847D01*
Y197088D01*
X307778D01*
Y196949D01*
X307709D01*
Y196879D01*
X307639D01*
Y196810D01*
X307570D01*
Y196740D01*
X307500D01*
Y196671D01*
X307431D01*
Y196532D01*
X307361D01*
Y196463D01*
X307292D01*
Y196393D01*
X307223D01*
Y196324D01*
X307153D01*
Y196254D01*
X307084D01*
Y196116D01*
X307014D01*
Y196046D01*
X306945D01*
Y195977D01*
X306875D01*
Y195907D01*
X306806D01*
Y195838D01*
X306737D01*
Y195699D01*
X306667D01*
Y195630D01*
X306598D01*
Y195560D01*
X306528D01*
Y195491D01*
X306459D01*
Y195421D01*
X306389D01*
Y195282D01*
X306320D01*
Y195213D01*
X306251D01*
Y195144D01*
X306181D01*
Y195074D01*
X306112D01*
Y195005D01*
X306042D01*
Y194866D01*
X305973D01*
Y194797D01*
X305904D01*
Y194727D01*
X305834D01*
Y194658D01*
X305765D01*
Y194588D01*
X305695D01*
Y194449D01*
X305626D01*
Y194380D01*
X305556D01*
Y194311D01*
X305487D01*
Y194241D01*
X305418D01*
Y194172D01*
X305348D01*
Y194102D01*
X305279D01*
Y193964D01*
X305209D01*
Y193894D01*
X305140D01*
Y193825D01*
X305070D01*
Y193755D01*
X305001D01*
Y193686D01*
X304932D01*
Y193547D01*
X304862D01*
Y193478D01*
X304793D01*
Y193408D01*
X304723D01*
Y193339D01*
X304654D01*
Y193269D01*
X304585D01*
Y193131D01*
X304515D01*
Y193061D01*
X304446D01*
Y192992D01*
X304376D01*
Y192922D01*
X304307D01*
Y192853D01*
X304237D01*
Y192714D01*
X304168D01*
Y192645D01*
X304099D01*
Y192575D01*
X304029D01*
Y192506D01*
X303960D01*
Y192436D01*
X303890D01*
Y192297D01*
X303821D01*
Y192228D01*
X303751D01*
Y192159D01*
X303682D01*
Y192089D01*
X303613D01*
Y192020D01*
X303543D01*
Y191881D01*
X303474D01*
Y191812D01*
X303404D01*
Y191742D01*
X303335D01*
Y191673D01*
X303266D01*
Y191603D01*
X303196D01*
Y191464D01*
X303127D01*
Y191395D01*
X303057D01*
Y191325D01*
X302988D01*
Y191256D01*
X302918D01*
Y191187D01*
X302849D01*
Y191117D01*
X302780D01*
Y190978D01*
X302710D01*
Y190909D01*
X302641D01*
Y190840D01*
X302571D01*
Y190770D01*
X302502D01*
Y190701D01*
X302432D01*
Y190562D01*
X302363D01*
Y190492D01*
X302294D01*
Y190423D01*
X302224D01*
Y190354D01*
X302155D01*
Y190284D01*
X302085D01*
Y190145D01*
X302016D01*
Y190076D01*
X301946D01*
Y190006D01*
X301877D01*
Y189937D01*
X301808D01*
Y189868D01*
X301738D01*
Y189729D01*
X301669D01*
Y189659D01*
X301599D01*
Y189590D01*
X301530D01*
Y189521D01*
X301461D01*
Y189451D01*
X301391D01*
Y189312D01*
X301322D01*
Y189243D01*
X301252D01*
Y189173D01*
X301183D01*
Y189104D01*
X301114D01*
Y189035D01*
X301044D01*
Y188896D01*
X300975D01*
Y188826D01*
X300905D01*
Y188757D01*
X300836D01*
Y188688D01*
X300766D01*
Y188618D01*
X300697D01*
Y188479D01*
X300627D01*
Y188410D01*
X300558D01*
Y188340D01*
X300489D01*
Y188271D01*
X300419D01*
Y188202D01*
X300350D01*
Y188132D01*
X300280D01*
Y187993D01*
X300211D01*
Y187924D01*
X300142D01*
Y187855D01*
X300072D01*
Y187785D01*
X300003D01*
Y187716D01*
X299933D01*
Y187577D01*
X299864D01*
Y187507D01*
X299795D01*
Y187438D01*
X299725D01*
Y187369D01*
X299656D01*
Y187299D01*
X299586D01*
Y187160D01*
X299517D01*
Y187091D01*
X299447D01*
Y187021D01*
X299378D01*
Y186952D01*
X299308D01*
Y186883D01*
X299239D01*
Y186744D01*
X299170D01*
Y186674D01*
X299100D01*
Y186605D01*
X299031D01*
Y186536D01*
X298961D01*
Y186466D01*
X298892D01*
Y186327D01*
X298823D01*
Y186258D01*
X298753D01*
Y186188D01*
X298684D01*
Y186119D01*
X298614D01*
Y186049D01*
X298545D01*
Y185911D01*
X298475D01*
Y185841D01*
X298406D01*
Y185772D01*
X298337D01*
Y185702D01*
X298267D01*
Y185633D01*
X298198D01*
Y185494D01*
X298128D01*
Y185425D01*
X298059D01*
Y185355D01*
X297990D01*
Y185286D01*
X297920D01*
Y185216D01*
X297851D01*
Y185078D01*
X297781D01*
Y185008D01*
X297712D01*
Y184939D01*
X297642D01*
Y184869D01*
X297573D01*
Y184800D01*
X297503D01*
Y184731D01*
X297434D01*
Y184592D01*
X297365D01*
Y184522D01*
X297295D01*
Y184453D01*
X297226D01*
Y184383D01*
X297156D01*
Y184314D01*
X297087D01*
Y184175D01*
X297018D01*
Y184106D01*
X296948D01*
Y184036D01*
X296879D01*
Y183897D01*
X296948D01*
Y183828D01*
X297018D01*
Y183759D01*
X297087D01*
Y183620D01*
X297156D01*
Y183550D01*
X297226D01*
Y183481D01*
X297295D01*
Y183412D01*
X297365D01*
Y183342D01*
X297434D01*
Y183203D01*
X297503D01*
Y183134D01*
X297573D01*
Y183064D01*
X297642D01*
Y182995D01*
X297712D01*
Y182925D01*
X297781D01*
Y182787D01*
X297851D01*
Y182717D01*
X297920D01*
Y182648D01*
X297990D01*
Y182578D01*
X298059D01*
Y182440D01*
X298128D01*
Y182370D01*
X298198D01*
Y182301D01*
X298267D01*
Y182231D01*
X298337D01*
Y182162D01*
X298406D01*
Y182023D01*
X298475D01*
Y181954D01*
X298545D01*
Y181884D01*
X298614D01*
Y181815D01*
X298684D01*
Y181745D01*
X298753D01*
Y181606D01*
X298823D01*
Y181537D01*
X298892D01*
Y181468D01*
X298961D01*
Y181398D01*
X299031D01*
Y181329D01*
X299100D01*
Y181190D01*
X299170D01*
Y181121D01*
X299239D01*
Y181051D01*
X299308D01*
Y180982D01*
X299378D01*
Y180912D01*
X299447D01*
Y180773D01*
X299517D01*
Y180704D01*
X299586D01*
Y180635D01*
X299656D01*
Y180565D01*
X299725D01*
Y180496D01*
X299795D01*
Y180357D01*
X299864D01*
Y180288D01*
X299933D01*
Y180218D01*
X300003D01*
Y180149D01*
X300072D01*
Y180079D01*
X300142D01*
Y179940D01*
X300211D01*
Y179871D01*
X300280D01*
Y179802D01*
X300350D01*
Y179732D01*
X300419D01*
Y179663D01*
X300489D01*
Y179524D01*
X300558D01*
Y179455D01*
X300627D01*
Y179385D01*
X300697D01*
Y179316D01*
X300766D01*
Y179246D01*
X300836D01*
Y179107D01*
X300905D01*
Y179038D01*
X300975D01*
Y178969D01*
X301044D01*
Y178899D01*
X301114D01*
Y178830D01*
X301183D01*
Y178691D01*
X301252D01*
Y178621D01*
X301322D01*
Y178552D01*
X301391D01*
Y178483D01*
X301461D01*
Y178413D01*
X301530D01*
Y178274D01*
X301599D01*
Y178205D01*
X301669D01*
Y178136D01*
X301738D01*
Y178066D01*
X301808D01*
Y177997D01*
X301877D01*
Y177927D01*
X301946D01*
Y177788D01*
X302016D01*
Y177719D01*
X302085D01*
Y177649D01*
X302155D01*
Y177580D01*
X302224D01*
Y177511D01*
X302294D01*
Y177372D01*
X302363D01*
Y177302D01*
X302432D01*
Y177233D01*
X302502D01*
Y177164D01*
X302571D01*
Y177094D01*
X302641D01*
Y176955D01*
X302710D01*
Y176886D01*
X302780D01*
Y176816D01*
X302849D01*
Y176747D01*
X302918D01*
Y176678D01*
X302988D01*
Y176539D01*
X303057D01*
Y176469D01*
X303127D01*
Y176400D01*
X303196D01*
Y176330D01*
X303266D01*
Y176261D01*
X303335D01*
Y176122D01*
X303404D01*
Y176053D01*
X303474D01*
Y175983D01*
X303543D01*
Y175914D01*
X303613D01*
Y175845D01*
X303682D01*
Y175775D01*
X303751D01*
Y175636D01*
X303821D01*
Y175567D01*
X303890D01*
Y175497D01*
X303960D01*
Y175428D01*
X304029D01*
Y175359D01*
X304099D01*
Y175220D01*
X304168D01*
Y175150D01*
X304237D01*
Y175081D01*
X304307D01*
Y175012D01*
X304376D01*
Y174942D01*
X304446D01*
Y174803D01*
X304515D01*
Y174734D01*
X304585D01*
Y174664D01*
X304654D01*
Y174595D01*
X304723D01*
Y174526D01*
X304793D01*
Y174456D01*
X304862D01*
Y174317D01*
X304932D01*
Y174248D01*
X305001D01*
Y174179D01*
X305070D01*
Y174109D01*
X305140D01*
Y174040D01*
X305209D01*
Y173901D01*
X305279D01*
Y173831D01*
X305348D01*
Y173762D01*
X305418D01*
Y173693D01*
X305487D01*
Y173623D01*
X305556D01*
Y173484D01*
X305626D01*
Y173415D01*
X305695D01*
Y173345D01*
X305765D01*
Y173276D01*
X305834D01*
Y173207D01*
X305904D01*
Y173137D01*
X305973D01*
Y172998D01*
X306042D01*
Y172929D01*
X306112D01*
Y172860D01*
X306181D01*
Y172790D01*
X306251D01*
Y172721D01*
X306320D01*
Y172582D01*
X306389D01*
Y172512D01*
X306459D01*
Y172443D01*
X306528D01*
Y172373D01*
X306598D01*
Y172304D01*
X306667D01*
Y172235D01*
X306737D01*
Y172096D01*
X306806D01*
Y172026D01*
X306875D01*
Y171957D01*
X306945D01*
Y171888D01*
X307014D01*
Y171818D01*
X307084D01*
Y171679D01*
X307153D01*
Y171610D01*
X307223D01*
Y171540D01*
X307292D01*
Y171471D01*
X307361D01*
Y171402D01*
X307431D01*
Y171332D01*
X307500D01*
Y171193D01*
X307570D01*
Y171124D01*
X307639D01*
Y171054D01*
X307709D01*
Y170985D01*
X307778D01*
Y170916D01*
X307847D01*
Y170846D01*
X307917D01*
Y170707D01*
X307986D01*
Y170638D01*
X308056D01*
Y170569D01*
X308125D01*
Y170499D01*
X308194D01*
Y170430D01*
X308264D01*
Y170291D01*
X308333D01*
Y170221D01*
X308403D01*
Y170152D01*
X308472D01*
Y170083D01*
X308541D01*
Y170013D01*
X308611D01*
Y169944D01*
X308680D01*
Y169805D01*
X308750D01*
Y169736D01*
X308819D01*
Y169666D01*
X308889D01*
Y169597D01*
X308958D01*
Y169527D01*
X309028D01*
Y169458D01*
X309097D01*
Y169319D01*
X309166D01*
Y169250D01*
X309236D01*
Y169180D01*
X309305D01*
Y169111D01*
X309375D01*
Y169041D01*
X309444D01*
Y168903D01*
X309513D01*
Y168833D01*
X305140D01*
Y168903D01*
X305070D01*
Y168972D01*
X305001D01*
Y169041D01*
X304932D01*
Y169180D01*
X304862D01*
Y169250D01*
X304793D01*
Y169319D01*
X304723D01*
Y169388D01*
X304654D01*
Y169458D01*
X304585D01*
Y169597D01*
X304515D01*
Y169666D01*
X304446D01*
Y169736D01*
X304376D01*
Y169805D01*
X304307D01*
Y169874D01*
X304237D01*
Y169944D01*
X304168D01*
Y170083D01*
X304099D01*
Y170152D01*
X304029D01*
Y170221D01*
X303960D01*
Y170291D01*
X303890D01*
Y170360D01*
X303821D01*
Y170499D01*
X303751D01*
Y170569D01*
X303682D01*
Y170638D01*
X303613D01*
Y170707D01*
X303543D01*
Y170777D01*
X303474D01*
Y170916D01*
X303404D01*
Y170985D01*
X303335D01*
Y171054D01*
X303266D01*
Y171124D01*
X303196D01*
Y171193D01*
X303127D01*
Y171332D01*
X303057D01*
Y171402D01*
X302988D01*
Y171471D01*
X302918D01*
Y171540D01*
X302849D01*
Y171610D01*
X302780D01*
Y171679D01*
X302710D01*
Y171818D01*
X302641D01*
Y171888D01*
X302571D01*
Y171957D01*
X302502D01*
Y172026D01*
X302432D01*
Y172096D01*
X302363D01*
Y172235D01*
X302294D01*
Y172304D01*
X302224D01*
Y172373D01*
X302155D01*
Y172443D01*
X302085D01*
Y172512D01*
X302016D01*
Y172651D01*
X301946D01*
Y172721D01*
X301877D01*
Y172790D01*
X301808D01*
Y172860D01*
X301738D01*
Y172929D01*
X301669D01*
Y173068D01*
X301599D01*
Y173137D01*
X301530D01*
Y173207D01*
X301461D01*
Y173276D01*
X301391D01*
Y173345D01*
X301322D01*
Y173415D01*
X301252D01*
Y173554D01*
X301183D01*
Y173623D01*
X301114D01*
Y173693D01*
X301044D01*
Y173762D01*
X300975D01*
Y173831D01*
X300905D01*
Y173970D01*
X300836D01*
Y174040D01*
X300766D01*
Y174109D01*
X300697D01*
Y174179D01*
X300627D01*
Y174248D01*
X300558D01*
Y174387D01*
X300489D01*
Y174456D01*
X300419D01*
Y174526D01*
X300350D01*
Y174595D01*
X300280D01*
Y174664D01*
X300211D01*
Y174803D01*
X300142D01*
Y174873D01*
X300072D01*
Y174942D01*
X300003D01*
Y175012D01*
X299933D01*
Y175081D01*
X299864D01*
Y175150D01*
X299795D01*
Y175289D01*
X299725D01*
Y175359D01*
X299656D01*
Y175428D01*
X299586D01*
Y175497D01*
X299517D01*
Y175567D01*
X299447D01*
Y175706D01*
X299378D01*
Y175775D01*
X299308D01*
Y175845D01*
X299239D01*
Y175914D01*
X299170D01*
Y175983D01*
X299100D01*
Y176122D01*
X299031D01*
Y176192D01*
X298961D01*
Y176261D01*
X298892D01*
Y176330D01*
X298823D01*
Y176400D01*
X298753D01*
Y176539D01*
X298684D01*
Y176608D01*
X298614D01*
Y176678D01*
X298545D01*
Y176747D01*
X298475D01*
Y176816D01*
X298406D01*
Y176886D01*
X298337D01*
Y177025D01*
X298267D01*
Y177094D01*
X298198D01*
Y177164D01*
X298128D01*
Y177233D01*
X298059D01*
Y177302D01*
X297990D01*
Y177441D01*
X297920D01*
Y177511D01*
X297851D01*
Y177580D01*
X297781D01*
Y177649D01*
X297712D01*
Y177719D01*
X297642D01*
Y177858D01*
X297573D01*
Y177927D01*
X297503D01*
Y177997D01*
X297434D01*
Y178066D01*
X297365D01*
Y178136D01*
X297295D01*
Y178274D01*
X297226D01*
Y178344D01*
X297156D01*
Y178413D01*
X297087D01*
Y178483D01*
X297018D01*
Y178552D01*
X296948D01*
Y178621D01*
X296879D01*
Y178760D01*
X296809D01*
Y178830D01*
X296740D01*
Y178899D01*
X296671D01*
Y178969D01*
X296601D01*
Y179038D01*
X296532D01*
Y179177D01*
X296462D01*
Y179246D01*
X296393D01*
Y179316D01*
X296323D01*
Y179385D01*
X296254D01*
Y179455D01*
X296184D01*
Y179593D01*
X296115D01*
Y179663D01*
X296046D01*
Y179732D01*
X295976D01*
Y179802D01*
X295907D01*
Y179871D01*
X295837D01*
Y180010D01*
X295768D01*
Y180079D01*
X295699D01*
Y180149D01*
X295629D01*
Y180218D01*
X295560D01*
Y180288D01*
X295490D01*
Y180357D01*
X295421D01*
Y180496D01*
X295352D01*
Y180565D01*
X295282D01*
Y180635D01*
X295213D01*
Y180704D01*
X295143D01*
Y180773D01*
X295074D01*
Y180912D01*
X295004D01*
Y180982D01*
X294935D01*
Y181051D01*
X294865D01*
Y181121D01*
X294796D01*
Y181190D01*
X294727D01*
Y181329D01*
X294657D01*
Y181259D01*
X294588D01*
Y181190D01*
X294518D01*
Y181121D01*
X294449D01*
Y180982D01*
X294380D01*
Y180912D01*
X294310D01*
Y180843D01*
X294241D01*
Y180773D01*
X294171D01*
Y180704D01*
X294102D01*
Y180565D01*
X294033D01*
Y180496D01*
X293963D01*
Y180426D01*
X293894D01*
Y180357D01*
X293824D01*
Y180288D01*
X293755D01*
Y180218D01*
X293685D01*
Y180079D01*
X293616D01*
Y180010D01*
X293547D01*
Y179940D01*
X293477D01*
Y179871D01*
X293408D01*
Y179802D01*
X293338D01*
Y179663D01*
X293269D01*
Y179593D01*
X293199D01*
Y179524D01*
X293130D01*
Y179455D01*
X293061D01*
Y179385D01*
X292991D01*
Y179246D01*
X292922D01*
Y179177D01*
X292852D01*
Y179107D01*
X292783D01*
Y179038D01*
X292713D01*
Y178969D01*
X292644D01*
Y178899D01*
X292575D01*
Y178760D01*
X292505D01*
Y178691D01*
X292436D01*
Y178621D01*
X292366D01*
Y178552D01*
X292297D01*
Y178483D01*
X292228D01*
Y178344D01*
X292158D01*
Y178274D01*
X292089D01*
Y178205D01*
X292019D01*
Y178136D01*
X291950D01*
Y178066D01*
X291880D01*
Y177997D01*
X291811D01*
Y177858D01*
X291742D01*
Y177788D01*
X291672D01*
Y177719D01*
X291603D01*
Y177649D01*
X291533D01*
Y177580D01*
X291464D01*
Y177441D01*
X291394D01*
Y177372D01*
X291325D01*
Y177302D01*
X291256D01*
Y177233D01*
X291186D01*
Y177164D01*
X291117D01*
Y177025D01*
X291047D01*
Y176955D01*
X290978D01*
Y176886D01*
X290909D01*
Y176816D01*
X290839D01*
Y176747D01*
X290770D01*
Y176678D01*
X290700D01*
Y176539D01*
X290631D01*
Y176469D01*
X290561D01*
Y176400D01*
X290492D01*
Y176330D01*
X290423D01*
Y176261D01*
X290353D01*
Y176122D01*
X290284D01*
Y176053D01*
X290214D01*
Y175983D01*
X290145D01*
Y175914D01*
X290075D01*
Y175845D01*
X290006D01*
Y175706D01*
X289937D01*
Y175636D01*
X289867D01*
Y175567D01*
X289798D01*
Y175497D01*
X289728D01*
Y175428D01*
X289659D01*
Y175359D01*
X289590D01*
Y175220D01*
X289520D01*
Y175150D01*
X289451D01*
Y175081D01*
X289381D01*
Y175012D01*
X289312D01*
Y174942D01*
X289242D01*
Y174803D01*
X289173D01*
Y174734D01*
X289104D01*
Y174664D01*
X289034D01*
Y174595D01*
X288965D01*
Y174526D01*
X288895D01*
Y174456D01*
X288826D01*
Y174317D01*
X288756D01*
Y174248D01*
X288687D01*
Y174179D01*
X288618D01*
Y174109D01*
X288548D01*
Y174040D01*
X288479D01*
Y173901D01*
X288409D01*
Y173831D01*
X288340D01*
Y173762D01*
X288270D01*
Y173693D01*
X288201D01*
Y173623D01*
X288132D01*
Y173484D01*
X288062D01*
Y173415D01*
X287993D01*
Y173345D01*
X287923D01*
Y173276D01*
X287854D01*
Y173207D01*
X287785D01*
Y173137D01*
X287715D01*
Y172998D01*
X287646D01*
Y172929D01*
X287576D01*
Y172860D01*
X287507D01*
Y172790D01*
X287438D01*
Y172721D01*
X287368D01*
Y172582D01*
X287299D01*
Y172512D01*
X287229D01*
Y172443D01*
X287160D01*
Y172373D01*
X287090D01*
Y172304D01*
X287021D01*
Y172165D01*
X286951D01*
Y172096D01*
X286882D01*
Y172026D01*
X286813D01*
Y171957D01*
X286743D01*
Y171888D01*
X286674D01*
Y171818D01*
X286604D01*
Y171679D01*
X286535D01*
Y171610D01*
X286466D01*
Y171540D01*
X286396D01*
Y171471D01*
X286327D01*
Y171402D01*
X286257D01*
Y171263D01*
X286188D01*
Y171193D01*
X286119D01*
Y171124D01*
X286049D01*
Y171054D01*
X285980D01*
Y170985D01*
X285910D01*
Y170916D01*
X285841D01*
Y170777D01*
X285771D01*
Y170707D01*
X285702D01*
Y170638D01*
X285632D01*
Y170569D01*
X285563D01*
Y170499D01*
X285494D01*
Y170360D01*
X285424D01*
Y170291D01*
X285355D01*
Y170221D01*
X285285D01*
Y170152D01*
X285216D01*
Y170083D01*
X285147D01*
Y169944D01*
X285077D01*
Y169874D01*
X285008D01*
Y169805D01*
X284938D01*
Y169736D01*
X284869D01*
Y169666D01*
X284800D01*
Y169597D01*
X284730D01*
Y169458D01*
X284661D01*
Y169388D01*
X284591D01*
Y169319D01*
X284522D01*
Y169250D01*
X284452D01*
Y169180D01*
X284383D01*
Y169041D01*
X284314D01*
Y168972D01*
X284244D01*
Y168903D01*
X284175D01*
Y168833D01*
X279801D01*
Y168903D01*
X279871D01*
Y168972D01*
X279940D01*
Y169041D01*
X280009D01*
Y169111D01*
X280079D01*
Y169250D01*
X280148D01*
Y169319D01*
X280218D01*
Y169388D01*
X280287D01*
Y169458D01*
X280357D01*
Y169527D01*
X280426D01*
Y169666D01*
X280495D01*
Y169736D01*
X280565D01*
Y169805D01*
X280634D01*
Y169874D01*
X280704D01*
Y169944D01*
X280773D01*
Y170083D01*
X280842D01*
Y170152D01*
X280912D01*
Y170221D01*
X280981D01*
Y170291D01*
X281051D01*
Y170360D01*
X281120D01*
Y170499D01*
X281190D01*
Y170569D01*
X281259D01*
Y170638D01*
X281328D01*
Y170707D01*
X281398D01*
Y170777D01*
X281467D01*
Y170916D01*
X281537D01*
Y170985D01*
X281606D01*
Y171054D01*
X281676D01*
Y171124D01*
X281745D01*
Y171193D01*
X281814D01*
Y171332D01*
X281884D01*
Y171402D01*
X281953D01*
Y171471D01*
X282023D01*
Y171540D01*
X282092D01*
Y171610D01*
X282161D01*
Y171679D01*
X282231D01*
Y171818D01*
X282300D01*
Y171888D01*
X282370D01*
Y171957D01*
X282439D01*
Y172026D01*
X282509D01*
Y172096D01*
X282578D01*
Y172235D01*
X282647D01*
Y172304D01*
X282717D01*
Y172373D01*
X282786D01*
Y172443D01*
X282856D01*
Y172512D01*
X282925D01*
Y172651D01*
X282995D01*
Y172721D01*
X283064D01*
Y172790D01*
X283133D01*
Y172860D01*
X283203D01*
Y172929D01*
X283272D01*
Y173068D01*
X283342D01*
Y173137D01*
X283411D01*
Y173207D01*
X283481D01*
Y173276D01*
X283550D01*
Y173345D01*
X283619D01*
Y173484D01*
X283689D01*
Y173554D01*
X283758D01*
Y173623D01*
X283828D01*
Y173693D01*
X283897D01*
Y173762D01*
X283966D01*
Y173901D01*
X284036D01*
Y173970D01*
X284105D01*
Y174040D01*
X284175D01*
Y174109D01*
X284244D01*
Y174179D01*
X284314D01*
Y174317D01*
X284383D01*
Y174387D01*
X284452D01*
Y174456D01*
X284522D01*
Y174526D01*
X284591D01*
Y174595D01*
X284661D01*
Y174664D01*
X284730D01*
Y174803D01*
X284800D01*
Y174873D01*
X284869D01*
Y174942D01*
X284938D01*
Y175012D01*
X285008D01*
Y175081D01*
X285077D01*
Y175220D01*
X285147D01*
Y175289D01*
X285216D01*
Y175359D01*
X285285D01*
Y175428D01*
X285355D01*
Y175497D01*
X285424D01*
Y175636D01*
X285494D01*
Y175706D01*
X285563D01*
Y175775D01*
X285632D01*
Y175845D01*
X285702D01*
Y175914D01*
X285771D01*
Y176053D01*
X285841D01*
Y176122D01*
X285910D01*
Y176192D01*
X285980D01*
Y176261D01*
X286049D01*
Y176330D01*
X286119D01*
Y176469D01*
X286188D01*
Y176539D01*
X286257D01*
Y176608D01*
X286327D01*
Y176678D01*
X286396D01*
Y176747D01*
X286466D01*
Y176886D01*
X286535D01*
Y176955D01*
X286604D01*
Y177025D01*
X286674D01*
Y177094D01*
X286743D01*
Y177164D01*
X286813D01*
Y177302D01*
X286882D01*
Y177372D01*
X286951D01*
Y177441D01*
X287021D01*
Y177511D01*
X287090D01*
Y177580D01*
X287160D01*
Y177649D01*
X287229D01*
Y177788D01*
X287299D01*
Y177858D01*
X287368D01*
Y177927D01*
X287438D01*
Y177997D01*
X287507D01*
Y178066D01*
X287576D01*
Y178205D01*
X287646D01*
Y178274D01*
X287715D01*
Y178344D01*
X287785D01*
Y178413D01*
X287854D01*
Y178483D01*
X287923D01*
Y178621D01*
X287993D01*
Y178691D01*
X288062D01*
Y178760D01*
X288132D01*
Y178830D01*
X288201D01*
Y178899D01*
X288270D01*
Y179038D01*
X288340D01*
Y179107D01*
X288409D01*
Y179177D01*
X288479D01*
Y179246D01*
X288548D01*
Y179316D01*
X288618D01*
Y179455D01*
X288687D01*
Y179524D01*
X288756D01*
Y179593D01*
X288826D01*
Y179663D01*
X288895D01*
Y179732D01*
X288965D01*
Y179871D01*
X289034D01*
Y179940D01*
X289104D01*
Y180010D01*
X289173D01*
Y180079D01*
X289242D01*
Y180149D01*
X289312D01*
Y180288D01*
X289381D01*
Y180357D01*
X289451D01*
Y180426D01*
X289520D01*
Y180496D01*
X289590D01*
Y180565D01*
X289659D01*
Y180704D01*
X289728D01*
Y180773D01*
X289798D01*
Y180843D01*
X289867D01*
Y180912D01*
X289937D01*
Y180982D01*
X290006D01*
Y181051D01*
X290075D01*
Y181190D01*
X290145D01*
Y181259D01*
X290214D01*
Y181329D01*
X290284D01*
Y181398D01*
X290353D01*
Y181468D01*
X290423D01*
Y181606D01*
X290492D01*
Y181676D01*
X290561D01*
Y181745D01*
X290631D01*
Y181815D01*
X290700D01*
Y181884D01*
X290770D01*
Y182023D01*
X290839D01*
Y182092D01*
X290909D01*
Y182162D01*
X290978D01*
Y182231D01*
X291047D01*
Y182301D01*
X291117D01*
Y182440D01*
X291186D01*
Y182509D01*
X291256D01*
Y182578D01*
X291325D01*
Y182648D01*
X291394D01*
Y182717D01*
X291464D01*
Y182856D01*
X291533D01*
Y182925D01*
X291603D01*
Y182995D01*
X291672D01*
Y183064D01*
X291742D01*
Y183134D01*
X291811D01*
Y183273D01*
X291880D01*
Y183342D01*
X291950D01*
Y183412D01*
X292019D01*
Y183481D01*
X292089D01*
Y183550D01*
X292158D01*
Y183689D01*
X292228D01*
Y183759D01*
X292297D01*
Y183828D01*
X292366D01*
Y183897D01*
X292436D01*
Y184036D01*
X292366D01*
Y184106D01*
X292297D01*
Y184175D01*
X292228D01*
Y184245D01*
X292158D01*
Y184383D01*
X292089D01*
Y184453D01*
X292019D01*
Y184522D01*
X291950D01*
Y184592D01*
X291880D01*
Y184661D01*
X291811D01*
Y184800D01*
X291742D01*
Y184869D01*
X291672D01*
Y184939D01*
X291603D01*
Y185008D01*
X291533D01*
Y185078D01*
X291464D01*
Y185216D01*
X291394D01*
Y185286D01*
X291325D01*
Y185355D01*
X291256D01*
Y185425D01*
X291186D01*
Y185494D01*
X291117D01*
Y185633D01*
X291047D01*
Y185702D01*
X290978D01*
Y185772D01*
X290909D01*
Y185841D01*
X290839D01*
Y185911D01*
X290770D01*
Y186049D01*
X290700D01*
Y186119D01*
X290631D01*
Y186188D01*
X290561D01*
Y186258D01*
X290492D01*
Y186327D01*
X290423D01*
Y186466D01*
X290353D01*
Y186536D01*
X290284D01*
Y186605D01*
X290214D01*
Y186674D01*
X290145D01*
Y186744D01*
X290075D01*
Y186883D01*
X290006D01*
Y186952D01*
X289937D01*
Y187021D01*
X289867D01*
Y187091D01*
X289798D01*
Y187160D01*
X289728D01*
Y187230D01*
X289659D01*
Y187369D01*
X289590D01*
Y187438D01*
X289520D01*
Y187507D01*
X289451D01*
Y187577D01*
X289381D01*
Y187646D01*
X289312D01*
Y187785D01*
X289242D01*
Y187855D01*
X289173D01*
Y187924D01*
X289104D01*
Y187993D01*
X289034D01*
Y188063D01*
X288965D01*
Y188202D01*
X288895D01*
Y188271D01*
X288826D01*
Y188340D01*
X288756D01*
Y188410D01*
X288687D01*
Y188479D01*
X288618D01*
Y188618D01*
X288548D01*
Y188688D01*
X288479D01*
Y188757D01*
X288409D01*
Y188826D01*
X288340D01*
Y188896D01*
X288270D01*
Y189035D01*
X288201D01*
Y189104D01*
X288132D01*
Y189173D01*
X288062D01*
Y189243D01*
X287993D01*
Y189312D01*
X287923D01*
Y189451D01*
X287854D01*
Y189521D01*
X287785D01*
Y189590D01*
X287715D01*
Y189659D01*
X287646D01*
Y189729D01*
X287576D01*
Y189868D01*
X287507D01*
Y189937D01*
X287438D01*
Y190006D01*
X287368D01*
Y190076D01*
X287299D01*
Y190145D01*
X287229D01*
Y190215D01*
X287160D01*
Y190354D01*
X287090D01*
Y190423D01*
X287021D01*
Y190492D01*
X286951D01*
Y190562D01*
X286882D01*
Y190631D01*
X286813D01*
Y190770D01*
X286743D01*
Y190840D01*
X286674D01*
Y190909D01*
X286604D01*
Y190978D01*
X286535D01*
Y191048D01*
X286466D01*
Y191187D01*
X286396D01*
Y191256D01*
X286327D01*
Y191325D01*
X286257D01*
Y191395D01*
X286188D01*
Y191464D01*
X286119D01*
Y191603D01*
X286049D01*
Y191673D01*
X285980D01*
Y191742D01*
X285910D01*
Y191812D01*
X285841D01*
Y191881D01*
X285771D01*
Y192020D01*
X285702D01*
Y192089D01*
X285632D01*
Y192159D01*
X285563D01*
Y192228D01*
X285494D01*
Y192297D01*
X285424D01*
Y192436D01*
X285355D01*
Y192506D01*
X285285D01*
Y192575D01*
X285216D01*
Y192645D01*
X285147D01*
Y192714D01*
X285077D01*
Y192853D01*
X285008D01*
Y192922D01*
X284938D01*
Y192992D01*
X284869D01*
Y193061D01*
X284800D01*
Y193131D01*
X284730D01*
Y193269D01*
X284661D01*
Y193339D01*
X284591D01*
Y193408D01*
X284522D01*
Y193478D01*
X284452D01*
Y193547D01*
X284383D01*
Y193616D01*
X284314D01*
Y193755D01*
X284244D01*
Y193825D01*
X284175D01*
Y193894D01*
X284105D01*
Y193964D01*
X284036D01*
Y194033D01*
X283966D01*
Y194172D01*
X283897D01*
Y194241D01*
X283828D01*
Y194311D01*
X283758D01*
Y194380D01*
X283689D01*
Y194449D01*
X283619D01*
Y194588D01*
X283550D01*
Y194658D01*
X283481D01*
Y194727D01*
X283411D01*
Y194797D01*
X283342D01*
Y194866D01*
X283272D01*
Y195005D01*
X283203D01*
Y195074D01*
X283133D01*
Y195144D01*
X283064D01*
Y195213D01*
X282995D01*
Y195282D01*
X282925D01*
Y195421D01*
X282856D01*
Y195491D01*
X282786D01*
Y195560D01*
X282717D01*
Y195630D01*
X282647D01*
Y195699D01*
X282578D01*
Y195838D01*
X282509D01*
Y195907D01*
X282439D01*
Y195977D01*
X282370D01*
Y196046D01*
X282300D01*
Y196116D01*
X282231D01*
Y196254D01*
X282161D01*
Y196324D01*
X282092D01*
Y196393D01*
X282023D01*
Y196463D01*
X281953D01*
Y196532D01*
X281884D01*
Y196601D01*
X281814D01*
Y196740D01*
X281745D01*
Y196810D01*
X281676D01*
Y196879D01*
X281606D01*
Y196949D01*
X281537D01*
Y197018D01*
X281467D01*
Y197157D01*
X281398D01*
Y197226D01*
X281328D01*
Y197296D01*
X281259D01*
Y197365D01*
X281190D01*
Y197435D01*
X281120D01*
Y197573D01*
X281051D01*
Y197643D01*
X280981D01*
Y197712D01*
X280912D01*
Y197782D01*
X280842D01*
Y197851D01*
X280773D01*
Y197990D01*
X280704D01*
Y198059D01*
X280634D01*
Y198129D01*
X280565D01*
Y198198D01*
X280495D01*
Y198268D01*
X280426D01*
Y198407D01*
X280357D01*
Y198476D01*
X280287D01*
Y198545D01*
X280218D01*
Y198615D01*
X280148D01*
Y198684D01*
X280079D01*
Y198823D01*
X280009D01*
Y198892D01*
X279940D01*
Y198962D01*
X279871D01*
Y199031D01*
X279801D01*
Y199101D01*
X284175D01*
Y199031D01*
X284244D01*
Y198962D01*
X284314D01*
Y198892D01*
X284383D01*
Y198754D01*
X284452D01*
Y198684D01*
X284522D01*
Y198615D01*
X284591D01*
Y198545D01*
X284661D01*
Y198476D01*
X284730D01*
Y198337D01*
X284800D01*
Y198268D01*
X284869D01*
Y198198D01*
X284938D01*
Y198129D01*
X285008D01*
Y198059D01*
X285077D01*
Y197990D01*
X285147D01*
Y197851D01*
X285216D01*
Y197782D01*
X285285D01*
Y197712D01*
X285355D01*
Y197643D01*
X285424D01*
Y197573D01*
X285494D01*
Y197435D01*
X285563D01*
Y197365D01*
X285632D01*
Y197296D01*
X285702D01*
Y197226D01*
X285771D01*
Y197157D01*
X285841D01*
Y197018D01*
X285910D01*
Y196949D01*
X285980D01*
Y196879D01*
X286049D01*
Y196810D01*
X286119D01*
Y196740D01*
X286188D01*
Y196671D01*
X286257D01*
Y196532D01*
X286327D01*
Y196463D01*
X286396D01*
Y196393D01*
X286466D01*
Y196324D01*
X286535D01*
Y196254D01*
X286604D01*
Y196116D01*
X286674D01*
Y196046D01*
X286743D01*
Y195977D01*
X286813D01*
Y195907D01*
X286882D01*
Y195838D01*
X286951D01*
Y195768D01*
X287021D01*
Y195630D01*
X287090D01*
Y195560D01*
X287160D01*
Y195491D01*
X287229D01*
Y195421D01*
X287299D01*
Y195352D01*
X287368D01*
Y195213D01*
X287438D01*
Y195144D01*
X287507D01*
Y195074D01*
X287576D01*
Y195005D01*
X287646D01*
Y194935D01*
X287715D01*
Y194797D01*
X287785D01*
Y194727D01*
X287854D01*
Y194658D01*
X287923D01*
Y194588D01*
X287993D01*
Y194519D01*
X288062D01*
Y194449D01*
X288132D01*
Y194311D01*
X288201D01*
Y194241D01*
X288270D01*
Y194172D01*
X288340D01*
Y194102D01*
X288409D01*
Y194033D01*
X288479D01*
Y193894D01*
X288548D01*
Y193825D01*
X288618D01*
Y193755D01*
X288687D01*
Y193686D01*
X288756D01*
Y193616D01*
X288826D01*
Y193478D01*
X288895D01*
Y193408D01*
X288965D01*
Y193339D01*
X289034D01*
Y193269D01*
X289104D01*
Y193200D01*
X289173D01*
Y193131D01*
X289242D01*
Y192992D01*
X289312D01*
Y192922D01*
X289381D01*
Y192853D01*
X289451D01*
Y192783D01*
X289520D01*
Y192714D01*
X289590D01*
Y192575D01*
X289659D01*
Y192506D01*
X289728D01*
Y192436D01*
X289798D01*
Y192367D01*
X289867D01*
Y192297D01*
X289937D01*
Y192228D01*
X290006D01*
Y192089D01*
X290075D01*
Y192020D01*
X290145D01*
Y191950D01*
X290214D01*
Y191881D01*
X290284D01*
Y191812D01*
X290353D01*
Y191673D01*
X290423D01*
Y191603D01*
X290492D01*
Y191534D01*
X290561D01*
Y191464D01*
X290631D01*
Y191395D01*
X290700D01*
Y191256D01*
X290770D01*
Y191187D01*
X290839D01*
Y191117D01*
X290909D01*
Y191048D01*
X290978D01*
Y190978D01*
X291047D01*
Y190909D01*
X291117D01*
Y190770D01*
X291186D01*
Y190701D01*
X291256D01*
Y190631D01*
X291325D01*
Y190562D01*
X291394D01*
Y190492D01*
X291464D01*
Y190354D01*
X291533D01*
Y190284D01*
X291603D01*
Y190215D01*
X291672D01*
Y190145D01*
X291742D01*
Y190076D01*
X291811D01*
Y189937D01*
X291880D01*
Y189868D01*
X291950D01*
Y189798D01*
X292019D01*
Y189729D01*
X292089D01*
Y189659D01*
X292158D01*
Y189590D01*
X292228D01*
Y189451D01*
X292297D01*
Y189382D01*
X292366D01*
Y189312D01*
X292436D01*
Y189243D01*
X292505D01*
Y189173D01*
X292575D01*
Y189035D01*
X292644D01*
Y188965D01*
X292713D01*
Y188896D01*
X292783D01*
Y188826D01*
X292852D01*
Y188757D01*
X292922D01*
Y188688D01*
X292991D01*
Y188549D01*
X293061D01*
Y188479D01*
X293130D01*
Y188410D01*
X293199D01*
Y188340D01*
X293269D01*
Y188271D01*
X293338D01*
Y188132D01*
X293408D01*
Y188063D01*
X293477D01*
Y187993D01*
X293547D01*
Y187924D01*
X293616D01*
Y187855D01*
X293685D01*
Y187716D01*
X293755D01*
Y187646D01*
X293824D01*
Y187577D01*
X293894D01*
Y187507D01*
X293963D01*
Y187438D01*
X294033D01*
Y187369D01*
X294102D01*
Y187230D01*
X294171D01*
Y187160D01*
X294241D01*
Y187091D01*
X294310D01*
Y187021D01*
X294380D01*
Y186952D01*
X294449D01*
Y186813D01*
X294518D01*
Y186744D01*
X294588D01*
Y186674D01*
X294657D01*
Y186605D01*
X294727D01*
Y186744D01*
X294796D01*
Y186813D01*
X294865D01*
Y186883D01*
X294935D01*
Y186952D01*
X295004D01*
Y187021D01*
X295074D01*
Y187160D01*
X295143D01*
Y187230D01*
X295213D01*
Y187299D01*
X295282D01*
Y187369D01*
X295352D01*
Y187438D01*
X295421D01*
Y187577D01*
X295490D01*
Y187646D01*
X295560D01*
Y187716D01*
X295629D01*
Y187785D01*
X295699D01*
Y187855D01*
X295768D01*
Y187924D01*
X295837D01*
Y188063D01*
X295907D01*
Y188132D01*
X295976D01*
Y188202D01*
X296046D01*
Y188271D01*
X296115D01*
Y188340D01*
X296184D01*
Y188479D01*
X296254D01*
Y188549D01*
X296323D01*
Y188618D01*
X296393D01*
Y188688D01*
X296462D01*
Y188757D01*
X296532D01*
Y188896D01*
X296601D01*
Y188965D01*
X296671D01*
Y189035D01*
X296740D01*
Y189104D01*
X296809D01*
Y189173D01*
X296879D01*
Y189312D01*
X296948D01*
Y189382D01*
X297018D01*
Y189451D01*
X297087D01*
Y189521D01*
X297156D01*
Y189590D01*
X297226D01*
Y189659D01*
X297295D01*
Y189798D01*
X297365D01*
Y189868D01*
X297434D01*
Y189937D01*
X297503D01*
Y190006D01*
X297573D01*
Y190076D01*
X297642D01*
Y190215D01*
X297712D01*
Y190284D01*
X297781D01*
Y190354D01*
X297851D01*
Y190423D01*
X297920D01*
Y190492D01*
X297990D01*
Y190631D01*
X298059D01*
Y190701D01*
X298128D01*
Y190770D01*
X298198D01*
Y190840D01*
X298267D01*
Y190909D01*
X298337D01*
Y191048D01*
X298406D01*
Y191117D01*
X298475D01*
Y191187D01*
X298545D01*
Y191256D01*
X298614D01*
Y191325D01*
X298684D01*
Y191395D01*
X298753D01*
Y191534D01*
X298823D01*
Y191603D01*
X298892D01*
Y191673D01*
X298961D01*
Y191742D01*
X299031D01*
Y191812D01*
X299100D01*
Y191950D01*
X299170D01*
Y192020D01*
X299239D01*
Y192089D01*
X299308D01*
Y192159D01*
X299378D01*
Y192228D01*
X299447D01*
Y192367D01*
X299517D01*
Y192436D01*
X299586D01*
Y192506D01*
X299656D01*
Y192575D01*
X299725D01*
Y192645D01*
X299795D01*
Y192783D01*
X299864D01*
Y192853D01*
X299933D01*
Y192922D01*
X300003D01*
Y192992D01*
X300072D01*
Y193061D01*
X300142D01*
Y193131D01*
X300211D01*
Y193269D01*
X300280D01*
Y193339D01*
X300350D01*
Y193408D01*
X300419D01*
Y193478D01*
X300489D01*
Y193547D01*
X300558D01*
Y193686D01*
X300627D01*
Y193755D01*
X300697D01*
Y193825D01*
X300766D01*
Y193894D01*
X300836D01*
Y193964D01*
X300905D01*
Y194102D01*
X300975D01*
Y194172D01*
X301044D01*
Y194241D01*
X301114D01*
Y194311D01*
X301183D01*
Y194380D01*
X301252D01*
Y194519D01*
X301322D01*
Y194588D01*
X301391D01*
Y194658D01*
X301461D01*
Y194727D01*
X301530D01*
Y194797D01*
X301599D01*
Y194866D01*
X301669D01*
Y195005D01*
X301738D01*
Y195074D01*
X301808D01*
Y195144D01*
X301877D01*
Y195213D01*
X301946D01*
Y195282D01*
X302016D01*
Y195421D01*
X302085D01*
Y195491D01*
X302155D01*
Y195560D01*
X302224D01*
Y195630D01*
X302294D01*
Y195699D01*
X302363D01*
Y195838D01*
X302432D01*
Y195907D01*
X302502D01*
Y195977D01*
X302571D01*
Y196046D01*
X302641D01*
Y196116D01*
X302710D01*
Y196254D01*
X302780D01*
Y196324D01*
X302849D01*
Y196393D01*
X302918D01*
Y196463D01*
X302988D01*
Y196532D01*
X303057D01*
Y196601D01*
X303127D01*
Y196740D01*
X303196D01*
Y196810D01*
X303266D01*
Y196879D01*
X303335D01*
Y196949D01*
X303404D01*
Y197018D01*
X303474D01*
Y197157D01*
X303543D01*
Y197226D01*
X303613D01*
Y197296D01*
X303682D01*
Y197365D01*
X303751D01*
Y197435D01*
X303821D01*
Y197573D01*
X303890D01*
Y197643D01*
X303960D01*
Y197712D01*
X304029D01*
Y197782D01*
X304099D01*
Y197851D01*
X304168D01*
Y197990D01*
X304237D01*
Y198059D01*
X304307D01*
Y198129D01*
X304376D01*
Y198198D01*
X304446D01*
Y198268D01*
X304515D01*
Y198337D01*
X304585D01*
Y198476D01*
X304654D01*
Y198545D01*
X304723D01*
Y198615D01*
X304793D01*
Y198684D01*
X304862D01*
Y198754D01*
X304932D01*
Y198892D01*
X305001D01*
Y198962D01*
X305070D01*
Y199031D01*
X305140D01*
Y199101D01*
X309513D01*
Y199031D01*
D02*
G37*
G36*
X270360D02*
X270776D01*
Y198962D01*
X271054D01*
Y198892D01*
X271332D01*
Y198823D01*
X271540D01*
Y198754D01*
X271679D01*
Y198684D01*
X271887D01*
Y198615D01*
X272026D01*
Y198545D01*
X272165D01*
Y198476D01*
X272304D01*
Y198407D01*
X272373D01*
Y198337D01*
X272512D01*
Y198268D01*
X272651D01*
Y198198D01*
X272720D01*
Y198129D01*
X272790D01*
Y198059D01*
X272928D01*
Y197990D01*
X272998D01*
Y197921D01*
X273067D01*
Y197851D01*
X273137D01*
Y197782D01*
X273206D01*
Y197712D01*
X273275D01*
Y197643D01*
X273345D01*
Y197573D01*
X273414D01*
Y197504D01*
X273484D01*
Y197435D01*
X273553D01*
Y197365D01*
X273623D01*
Y197296D01*
X273692D01*
Y197226D01*
X273762D01*
Y197088D01*
X273831D01*
Y197018D01*
X273900D01*
Y196879D01*
X273970D01*
Y196810D01*
X274039D01*
Y196671D01*
X274109D01*
Y196601D01*
X274178D01*
Y196463D01*
X274247D01*
Y196324D01*
X274317D01*
Y196185D01*
X274386D01*
Y195977D01*
X274456D01*
Y195838D01*
X274525D01*
Y195630D01*
X274594D01*
Y195352D01*
X274664D01*
Y195074D01*
X274733D01*
Y194658D01*
X274803D01*
Y173276D01*
X274733D01*
Y172860D01*
X274664D01*
Y172582D01*
X274594D01*
Y172304D01*
X274525D01*
Y172096D01*
X274456D01*
Y171957D01*
X274386D01*
Y171749D01*
X274317D01*
Y171610D01*
X274247D01*
Y171471D01*
X274178D01*
Y171332D01*
X274109D01*
Y171263D01*
X274039D01*
Y171124D01*
X273970D01*
Y171054D01*
X273900D01*
Y170916D01*
X273831D01*
Y170846D01*
X273762D01*
Y170707D01*
X273692D01*
Y170638D01*
X273623D01*
Y170569D01*
X273553D01*
Y170499D01*
X273484D01*
Y170430D01*
X273414D01*
Y170360D01*
X273345D01*
Y170291D01*
X273275D01*
Y170221D01*
X273206D01*
Y170152D01*
X273137D01*
Y170083D01*
X273067D01*
Y170013D01*
X272998D01*
Y169944D01*
X272928D01*
Y169874D01*
X272790D01*
Y169805D01*
X272720D01*
Y169736D01*
X272651D01*
Y169666D01*
X272512D01*
Y169597D01*
X272373D01*
Y169527D01*
X272304D01*
Y169458D01*
X272165D01*
Y169388D01*
X272026D01*
Y169319D01*
X271887D01*
Y169250D01*
X271679D01*
Y169180D01*
X271540D01*
Y169111D01*
X271332D01*
Y169041D01*
X271054D01*
Y168972D01*
X270776D01*
Y168903D01*
X270360D01*
Y168833D01*
X249047D01*
Y168903D01*
X248631D01*
Y168972D01*
X248353D01*
Y169041D01*
X248076D01*
Y169111D01*
X247867D01*
Y169180D01*
X247728D01*
Y169250D01*
X247520D01*
Y169319D01*
X247381D01*
Y169388D01*
X247243D01*
Y169458D01*
X247104D01*
Y169527D01*
X247034D01*
Y169597D01*
X246896D01*
Y169666D01*
X246757D01*
Y169736D01*
X246687D01*
Y169805D01*
X246618D01*
Y169874D01*
X246479D01*
Y169944D01*
X246410D01*
Y170013D01*
X246340D01*
Y170083D01*
X246271D01*
Y170152D01*
X246201D01*
Y170221D01*
X246132D01*
Y170291D01*
X246062D01*
Y170360D01*
X245993D01*
Y170430D01*
X245924D01*
Y170499D01*
X245854D01*
Y170569D01*
X245785D01*
Y170638D01*
X245715D01*
Y170707D01*
X245646D01*
Y170846D01*
X245577D01*
Y170916D01*
X245507D01*
Y170985D01*
X245438D01*
Y171124D01*
X245368D01*
Y171263D01*
X245299D01*
Y171332D01*
X245229D01*
Y171471D01*
X245160D01*
Y171610D01*
X245091D01*
Y171749D01*
X245021D01*
Y171957D01*
X244952D01*
Y172096D01*
X244882D01*
Y172304D01*
X244813D01*
Y172582D01*
X244743D01*
Y172860D01*
X244674D01*
Y173276D01*
X244605D01*
Y194658D01*
X244674D01*
Y195074D01*
X244743D01*
Y195352D01*
X244813D01*
Y195630D01*
X244882D01*
Y195838D01*
X244952D01*
Y195977D01*
X245021D01*
Y196185D01*
X245091D01*
Y196324D01*
X245160D01*
Y196463D01*
X245229D01*
Y196601D01*
X245299D01*
Y196671D01*
X245368D01*
Y196810D01*
X245438D01*
Y196949D01*
X245507D01*
Y197018D01*
X245577D01*
Y197088D01*
X245646D01*
Y197226D01*
X245715D01*
Y197296D01*
X245785D01*
Y197365D01*
X245854D01*
Y197435D01*
X245924D01*
Y197504D01*
X245993D01*
Y197573D01*
X246062D01*
Y197643D01*
X246132D01*
Y197712D01*
X246201D01*
Y197782D01*
X246271D01*
Y197851D01*
X246340D01*
Y197921D01*
X246410D01*
Y197990D01*
X246479D01*
Y198059D01*
X246618D01*
Y198129D01*
X246687D01*
Y198198D01*
X246757D01*
Y198268D01*
X246896D01*
Y198337D01*
X247034D01*
Y198407D01*
X247104D01*
Y198476D01*
X247243D01*
Y198545D01*
X247381D01*
Y198615D01*
X247520D01*
Y198684D01*
X247728D01*
Y198754D01*
X247867D01*
Y198823D01*
X248076D01*
Y198892D01*
X248353D01*
Y198962D01*
X248631D01*
Y199031D01*
X249047D01*
Y199101D01*
X270360D01*
Y199031D01*
D02*
G37*
G36*
X234539D02*
X234955D01*
Y198962D01*
X235233D01*
Y198892D01*
X235510D01*
Y198823D01*
X235719D01*
Y198754D01*
X235858D01*
Y198684D01*
X236066D01*
Y198615D01*
X236205D01*
Y198545D01*
X236343D01*
Y198476D01*
X236482D01*
Y198407D01*
X236552D01*
Y198337D01*
X236690D01*
Y198268D01*
X236829D01*
Y198198D01*
X236899D01*
Y198129D01*
X236968D01*
Y198059D01*
X237107D01*
Y197990D01*
X237176D01*
Y197921D01*
X237246D01*
Y197851D01*
X237315D01*
Y197782D01*
X237385D01*
Y197712D01*
X237454D01*
Y197643D01*
X237524D01*
Y197573D01*
X237593D01*
Y197504D01*
X237662D01*
Y197435D01*
X237732D01*
Y197365D01*
X237801D01*
Y197296D01*
X237871D01*
Y197226D01*
X237940D01*
Y197088D01*
X238010D01*
Y197018D01*
X238079D01*
Y196949D01*
X238148D01*
Y196810D01*
X238218D01*
Y196671D01*
X238287D01*
Y196601D01*
X238357D01*
Y196463D01*
X238426D01*
Y196324D01*
X238495D01*
Y196185D01*
X238565D01*
Y195977D01*
X238634D01*
Y195838D01*
X238704D01*
Y195630D01*
X238773D01*
Y195352D01*
X238843D01*
Y195074D01*
X238912D01*
Y194658D01*
X238981D01*
Y187091D01*
X238912D01*
Y186674D01*
X238843D01*
Y186397D01*
X238773D01*
Y186119D01*
X238704D01*
Y185911D01*
X238634D01*
Y185772D01*
X238565D01*
Y185564D01*
X238495D01*
Y185425D01*
X238426D01*
Y185286D01*
X238495D01*
Y185008D01*
X238565D01*
Y184731D01*
X238634D01*
Y184661D01*
X238704D01*
Y184592D01*
X238773D01*
Y184522D01*
X238843D01*
Y184453D01*
X238912D01*
Y184383D01*
X238981D01*
Y184245D01*
X239051D01*
Y184175D01*
X239120D01*
Y184106D01*
X239190D01*
Y184036D01*
X239259D01*
Y183897D01*
X239329D01*
Y183828D01*
X239398D01*
Y183759D01*
X239467D01*
Y183620D01*
X239537D01*
Y183481D01*
X239606D01*
Y183412D01*
X239676D01*
Y183273D01*
X239745D01*
Y183134D01*
X239814D01*
Y182995D01*
X239884D01*
Y182787D01*
X239953D01*
Y182648D01*
X240023D01*
Y182440D01*
X240092D01*
Y182162D01*
X240162D01*
Y181884D01*
X240231D01*
Y181468D01*
X240300D01*
Y173276D01*
X240231D01*
Y172860D01*
X240162D01*
Y172582D01*
X240092D01*
Y172304D01*
X240023D01*
Y172096D01*
X239953D01*
Y171957D01*
X239884D01*
Y171749D01*
X239814D01*
Y171610D01*
X239745D01*
Y171471D01*
X239676D01*
Y171332D01*
X239606D01*
Y171263D01*
X239537D01*
Y171124D01*
X239467D01*
Y171054D01*
X239398D01*
Y170916D01*
X239329D01*
Y170846D01*
X239259D01*
Y170707D01*
X239190D01*
Y170638D01*
X239120D01*
Y170569D01*
X239051D01*
Y170499D01*
X238981D01*
Y170430D01*
X238912D01*
Y170360D01*
X238843D01*
Y170291D01*
X238773D01*
Y170221D01*
X238704D01*
Y170152D01*
X238634D01*
Y170083D01*
X238565D01*
Y170013D01*
X238495D01*
Y169944D01*
X238426D01*
Y169874D01*
X238287D01*
Y169805D01*
X238218D01*
Y169736D01*
X238079D01*
Y169666D01*
X238010D01*
Y169597D01*
X237871D01*
Y169527D01*
X237801D01*
Y169458D01*
X237662D01*
Y169388D01*
X237524D01*
Y169319D01*
X237385D01*
Y169250D01*
X237176D01*
Y169180D01*
X237038D01*
Y169111D01*
X236829D01*
Y169041D01*
X236552D01*
Y168972D01*
X236274D01*
Y168903D01*
X235858D01*
Y168833D01*
X210102D01*
Y199101D01*
X234539D01*
Y199031D01*
D02*
G37*
G36*
X292892Y156323D02*
X292659D01*
Y156556D01*
X292892D01*
Y156323D01*
D02*
G37*
G36*
X294056Y156556D02*
X294289D01*
Y156323D01*
X294522D01*
Y155159D01*
X294289D01*
Y156323D01*
X294056D01*
Y156556D01*
X292892D01*
Y156789D01*
X294056D01*
Y156556D01*
D02*
G37*
G36*
X293823Y156090D02*
X294056D01*
Y155858D01*
X293823D01*
Y155392D01*
X294056D01*
Y155159D01*
X294289D01*
Y154926D01*
X294056D01*
Y155159D01*
X293590D01*
Y155392D01*
Y155625D01*
X293357D01*
Y155159D01*
X293125D01*
Y156323D01*
X293823D01*
Y156090D01*
D02*
G37*
G36*
X292659Y155159D02*
X292892D01*
Y154926D01*
X294056D01*
Y154693D01*
X292892D01*
Y154926D01*
X292659D01*
Y155159D01*
X292426D01*
Y155858D01*
Y156090D01*
Y156323D01*
X292659D01*
Y155159D01*
D02*
G37*
G36*
X291495Y133503D02*
X291727D01*
Y133037D01*
X291960D01*
Y132804D01*
X292193D01*
Y132571D01*
X292426D01*
Y132339D01*
X292659D01*
Y132106D01*
X292892D01*
Y131873D01*
X293125D01*
Y131640D01*
X293357D01*
Y131407D01*
X293125D01*
Y131174D01*
X284742D01*
Y131407D01*
X284276D01*
Y131640D01*
X284043D01*
Y131873D01*
X283810D01*
Y132106D01*
X283577D01*
Y132571D01*
X283345D01*
Y133270D01*
X283112D01*
Y132804D01*
X282879D01*
Y132571D01*
X282646D01*
Y132339D01*
X282180D01*
Y132106D01*
X281947D01*
Y131873D01*
X281482D01*
Y131640D01*
X280783D01*
Y131407D01*
X280084D01*
Y131174D01*
X274962D01*
Y131407D01*
X274030D01*
Y131640D01*
X273332D01*
Y131873D01*
X272866D01*
Y132106D01*
X272400D01*
Y132339D01*
X271934D01*
Y132571D01*
X271702D01*
Y132804D01*
X271469D01*
Y133037D01*
X271236D01*
Y133270D01*
X271003D01*
Y133503D01*
X270770D01*
Y133969D01*
X270537D01*
Y134202D01*
X270304D01*
Y133736D01*
X270072D01*
Y133503D01*
X269839D01*
Y133270D01*
X269606D01*
Y133037D01*
X269140D01*
Y132804D01*
X268907D01*
Y132571D01*
X268442D01*
Y132339D01*
X267976D01*
Y132106D01*
X267510D01*
Y131873D01*
X266811D01*
Y131640D01*
X265647D01*
Y131407D01*
X263784D01*
Y131174D01*
X250977D01*
Y131407D01*
X250744D01*
Y132106D01*
X250511D01*
Y133037D01*
X250278D01*
Y133969D01*
X250046D01*
Y134900D01*
X249813D01*
Y135832D01*
X242128D01*
Y134900D01*
X241896D01*
Y133969D01*
X241663D01*
Y133037D01*
X241430D01*
Y132106D01*
X241197D01*
Y131174D01*
X233280D01*
Y131873D01*
X233513D01*
Y132804D01*
X233745D01*
Y133736D01*
X233978D01*
Y134667D01*
X234211D01*
Y135599D01*
X234444D01*
Y136530D01*
X234677D01*
Y137462D01*
X234910D01*
Y138393D01*
X235143D01*
Y139324D01*
X235375D01*
Y140256D01*
X235608D01*
Y141187D01*
X235841D01*
Y142119D01*
X236074D01*
Y143050D01*
X236307D01*
Y143982D01*
X236540D01*
Y144913D01*
X236773D01*
Y145844D01*
X237005D01*
Y146776D01*
X237238D01*
Y147707D01*
X237471D01*
Y148639D01*
X237704D01*
Y149570D01*
X237937D01*
Y150502D01*
X238170D01*
Y151433D01*
X238403D01*
Y152365D01*
X238635D01*
Y154460D01*
X238403D01*
Y154926D01*
X238170D01*
Y155159D01*
X237937D01*
Y155625D01*
X237704D01*
Y155858D01*
X237471D01*
Y156090D01*
X237238D01*
Y156323D01*
X237005D01*
Y156789D01*
X252374D01*
Y156556D01*
X252840D01*
Y156323D01*
X253073D01*
Y156090D01*
X253306D01*
Y155392D01*
X253538D01*
Y154460D01*
X253771D01*
Y153529D01*
X254004D01*
Y152597D01*
X254237D01*
Y152830D01*
X254470D01*
Y153296D01*
X254703D01*
Y153762D01*
X254936D01*
Y153995D01*
X255169D01*
Y154227D01*
X255401D01*
Y154460D01*
X255634D01*
Y154693D01*
X255867D01*
Y154926D01*
X256100D01*
Y155159D01*
X256566D01*
Y155392D01*
X257031D01*
Y155625D01*
X257497D01*
Y155858D01*
X257963D01*
Y156090D01*
X258661D01*
Y156323D01*
X259593D01*
Y156556D01*
X261223D01*
Y156789D01*
X278222D01*
Y138393D01*
X278454D01*
Y137927D01*
X278687D01*
Y137462D01*
X279153D01*
Y137229D01*
X279619D01*
Y136996D01*
X281249D01*
Y137229D01*
X281715D01*
Y137462D01*
X282180D01*
Y137695D01*
X282413D01*
Y137927D01*
X282646D01*
Y138393D01*
X282879D01*
Y156789D01*
X291495D01*
Y133503D01*
D02*
G37*
G36*
X247950Y123723D02*
X246087D01*
Y125120D01*
X247950D01*
Y123723D01*
D02*
G37*
G36*
X280550Y125120D02*
X281249D01*
Y124887D01*
X281715D01*
Y124654D01*
X281947D01*
Y124422D01*
X282413D01*
Y124189D01*
X282646D01*
Y123956D01*
X282879D01*
Y123723D01*
X282646D01*
Y123490D01*
X282413D01*
Y123257D01*
X281947D01*
Y123024D01*
X281715D01*
Y122791D01*
X281016D01*
Y123024D01*
X280783D01*
Y123257D01*
X280550D01*
Y123490D01*
X279852D01*
Y123723D01*
X278687D01*
Y123490D01*
X278222D01*
Y123024D01*
X277989D01*
Y122559D01*
X278222D01*
Y122326D01*
X278687D01*
Y122093D01*
X280084D01*
Y121860D01*
X281249D01*
Y121627D01*
X281947D01*
Y121394D01*
X282180D01*
Y121161D01*
X282413D01*
Y120929D01*
X282646D01*
Y120696D01*
X282879D01*
Y119997D01*
X283112D01*
Y119299D01*
X282879D01*
Y118367D01*
X282646D01*
Y118134D01*
X282413D01*
Y117668D01*
X282180D01*
Y117436D01*
X281715D01*
Y117203D01*
X281249D01*
Y116970D01*
X280550D01*
Y116737D01*
X277756D01*
Y116970D01*
X277057D01*
Y117203D01*
X276592D01*
Y117436D01*
X276359D01*
Y117668D01*
X276126D01*
Y117901D01*
X275893D01*
Y118134D01*
X275660D01*
Y118600D01*
X275893D01*
Y118833D01*
X276359D01*
Y119066D01*
X276592D01*
Y119299D01*
X277290D01*
Y119066D01*
X277523D01*
Y118833D01*
X277989D01*
Y118600D01*
X278687D01*
Y118367D01*
X280084D01*
Y118600D01*
X280550D01*
Y118833D01*
X280783D01*
Y119764D01*
X280550D01*
Y119997D01*
X279386D01*
Y120230D01*
X277989D01*
Y120463D01*
X277290D01*
Y120696D01*
X276824D01*
Y120929D01*
X276592D01*
Y121161D01*
X276359D01*
Y121394D01*
X276126D01*
Y121860D01*
X275893D01*
Y122791D01*
Y123024D01*
Y123490D01*
X276126D01*
Y123956D01*
X276359D01*
Y124422D01*
X276592D01*
Y124654D01*
X277057D01*
Y124887D01*
X277290D01*
Y125120D01*
X277989D01*
Y125353D01*
X280550D01*
Y125120D01*
D02*
G37*
G36*
X265647Y123024D02*
X266346D01*
Y122791D01*
X266579D01*
Y122559D01*
X266811D01*
Y122093D01*
X267044D01*
Y121394D01*
Y121161D01*
Y116970D01*
X265181D01*
Y121394D01*
X264949D01*
Y121627D01*
X263784D01*
Y121394D01*
X263551D01*
Y116970D01*
X261456D01*
Y123024D01*
X263551D01*
Y122791D01*
X263784D01*
Y123024D01*
X264483D01*
Y123257D01*
X265647D01*
Y123024D01*
D02*
G37*
G36*
X245621Y121627D02*
X245388D01*
Y121394D01*
X244457D01*
Y121161D01*
X243991D01*
Y120929D01*
X243758D01*
Y119066D01*
Y118833D01*
Y116970D01*
X241896D01*
Y123024D01*
X243758D01*
Y122559D01*
X243991D01*
Y122791D01*
X244457D01*
Y123024D01*
X245621D01*
Y121627D01*
D02*
G37*
G36*
X290796Y123024D02*
X291727D01*
Y122791D01*
X291960D01*
Y122559D01*
X292193D01*
Y122326D01*
X292426D01*
Y121860D01*
X292659D01*
Y120929D01*
Y120696D01*
Y116970D01*
X290796D01*
Y117203D01*
X290563D01*
Y116970D01*
X289865D01*
Y116737D01*
X288235D01*
Y116970D01*
X287769D01*
Y117203D01*
X287536D01*
Y117436D01*
X287303D01*
Y117901D01*
X287070D01*
Y119299D01*
X287303D01*
Y119764D01*
X287536D01*
Y119997D01*
X287769D01*
Y120230D01*
X288235D01*
Y120463D01*
X288933D01*
Y120696D01*
X289865D01*
Y120929D01*
X290796D01*
Y121627D01*
X290563D01*
Y121860D01*
X289399D01*
Y121394D01*
X289166D01*
Y121161D01*
X287536D01*
Y121394D01*
X287303D01*
Y121860D01*
X287536D01*
Y122326D01*
X287769D01*
Y122559D01*
X288002D01*
Y122791D01*
X288235D01*
Y123024D01*
X289166D01*
Y123257D01*
X290796D01*
Y123024D01*
D02*
G37*
G36*
X271469D02*
X272167D01*
Y122791D01*
X272633D01*
Y122559D01*
X272866D01*
Y122093D01*
X273099D01*
Y117203D01*
X273332D01*
Y116970D01*
X271469D01*
Y117436D01*
X271236D01*
Y117203D01*
X271003D01*
Y116970D01*
X270537D01*
Y116737D01*
X268907D01*
Y116970D01*
X268442D01*
Y117203D01*
X268209D01*
Y117436D01*
X267976D01*
Y117668D01*
X267743D01*
Y118367D01*
X267510D01*
Y118833D01*
X267743D01*
Y119531D01*
X267976D01*
Y119764D01*
X268209D01*
Y119997D01*
X268442D01*
Y120230D01*
X268674D01*
Y120463D01*
X269373D01*
Y120696D01*
X270537D01*
Y120929D01*
X271236D01*
Y121860D01*
X270072D01*
Y121627D01*
X269839D01*
Y121394D01*
X269606D01*
Y121161D01*
X267976D01*
Y122093D01*
X268209D01*
Y122559D01*
X268442D01*
Y122791D01*
X268907D01*
Y123024D01*
X269606D01*
Y123257D01*
X271469D01*
Y123024D01*
D02*
G37*
G36*
X254237Y121627D02*
X254004D01*
Y121394D01*
X253771D01*
Y121161D01*
X253538D01*
Y120929D01*
X253306D01*
Y120696D01*
X253073D01*
Y120463D01*
X252840D01*
Y120230D01*
X252607D01*
Y119764D01*
X252374D01*
Y119531D01*
X252141D01*
Y119299D01*
X251908D01*
Y119066D01*
X251676D01*
Y118833D01*
X251443D01*
Y118600D01*
X251210D01*
Y118367D01*
X254237D01*
Y116970D01*
X248649D01*
Y118600D01*
X248881D01*
Y118833D01*
X249114D01*
Y119066D01*
X249347D01*
Y119299D01*
X249580D01*
Y119531D01*
X249813D01*
Y119764D01*
X250046D01*
Y119997D01*
X250278D01*
Y120230D01*
X250511D01*
Y120463D01*
X250744D01*
Y120696D01*
X250977D01*
Y120929D01*
X251210D01*
Y121161D01*
X251443D01*
Y121394D01*
X251676D01*
Y121627D01*
X248881D01*
Y123024D01*
X254237D01*
Y121627D01*
D02*
G37*
G36*
X247950Y116970D02*
X246087D01*
Y119997D01*
Y120230D01*
Y123024D01*
X247950D01*
Y116970D01*
D02*
G37*
G36*
X238635Y124422D02*
X238868D01*
Y123956D01*
X239101D01*
Y123257D01*
X239334D01*
Y122559D01*
X239567D01*
Y122093D01*
X239800D01*
Y121394D01*
X240033D01*
Y120696D01*
X240265D01*
Y119997D01*
X240498D01*
Y119531D01*
X240731D01*
Y118833D01*
X240964D01*
Y118134D01*
X241197D01*
Y117668D01*
X241430D01*
Y116970D01*
X239334D01*
Y117203D01*
X239101D01*
Y117436D01*
Y117668D01*
Y117901D01*
X238868D01*
Y118134D01*
X235841D01*
Y117668D01*
X235608D01*
Y116970D01*
X233280D01*
Y117436D01*
X233513D01*
Y117901D01*
X233745D01*
Y118600D01*
X233978D01*
Y119299D01*
X234211D01*
Y119764D01*
X234444D01*
Y120463D01*
X234677D01*
Y121161D01*
X234910D01*
Y121627D01*
X235143D01*
Y122326D01*
X235375D01*
Y123024D01*
X235608D01*
Y123723D01*
X235841D01*
Y124189D01*
X236074D01*
Y124887D01*
X236307D01*
Y125120D01*
X238635D01*
Y124422D01*
D02*
G37*
G36*
X301042Y123024D02*
X301740D01*
Y122791D01*
X301973D01*
Y122559D01*
X302206D01*
Y122326D01*
X302439D01*
Y122093D01*
X302672D01*
Y121627D01*
X302905D01*
Y120929D01*
X303138D01*
Y119531D01*
X298946D01*
Y118833D01*
X299179D01*
Y118367D01*
X299645D01*
Y118134D01*
X300809D01*
Y118367D01*
X301275D01*
Y118600D01*
X301508D01*
Y119066D01*
X302206D01*
Y118833D01*
X302672D01*
Y118600D01*
X303138D01*
Y118367D01*
X302905D01*
Y117901D01*
X302672D01*
Y117668D01*
X302439D01*
Y117436D01*
X302206D01*
Y117203D01*
X301740D01*
Y116970D01*
X301275D01*
Y116737D01*
X298946D01*
Y116970D01*
X298248D01*
Y117203D01*
X298015D01*
Y117436D01*
X297782D01*
Y117668D01*
X297549D01*
Y117901D01*
X297316D01*
Y118367D01*
X297083D01*
Y119299D01*
X296850D01*
Y120463D01*
X297083D01*
Y121394D01*
X297316D01*
Y121627D01*
Y121860D01*
X297549D01*
Y122093D01*
X297782D01*
Y122326D01*
X298015D01*
Y122559D01*
X298248D01*
Y122791D01*
X298480D01*
Y123024D01*
X299179D01*
Y123257D01*
X301042D01*
Y123024D01*
D02*
G37*
G36*
X295453Y124654D02*
X295686D01*
Y123024D01*
X296618D01*
Y122791D01*
X296850D01*
Y121860D01*
X296618D01*
Y121627D01*
X295686D01*
Y118367D01*
X296618D01*
Y116970D01*
X296152D01*
Y116737D01*
X295220D01*
Y116970D01*
X294289D01*
Y117203D01*
X294056D01*
Y117668D01*
X293823D01*
Y121627D01*
X292892D01*
Y123024D01*
X293823D01*
Y124887D01*
X295453D01*
Y124654D01*
D02*
G37*
G36*
X285673Y123024D02*
X286837D01*
Y121627D01*
X285673D01*
Y118600D01*
X285906D01*
Y118367D01*
X286837D01*
Y116970D01*
X286139D01*
Y116737D01*
X285207D01*
Y116970D01*
X284509D01*
Y117203D01*
X284276D01*
Y117436D01*
X284043D01*
Y117901D01*
X283810D01*
Y119764D01*
Y119997D01*
Y121627D01*
X283112D01*
Y121860D01*
X282879D01*
Y122791D01*
X283112D01*
Y123024D01*
X283810D01*
Y124887D01*
X285673D01*
Y123024D01*
D02*
G37*
G36*
X258661D02*
X259360D01*
Y122791D01*
X259826D01*
Y122559D01*
X260059D01*
Y122326D01*
X260291D01*
Y122093D01*
X260524D01*
Y121627D01*
X260757D01*
Y121161D01*
X260990D01*
Y118833D01*
X260757D01*
Y118134D01*
X260524D01*
Y117901D01*
X260291D01*
Y117668D01*
X260059D01*
Y117436D01*
X259826D01*
Y117203D01*
X259360D01*
Y116970D01*
X258894D01*
Y116737D01*
X256566D01*
Y116970D01*
X256100D01*
Y117203D01*
X255634D01*
Y117436D01*
X255401D01*
Y117668D01*
X255169D01*
Y117901D01*
X254936D01*
Y118367D01*
X254703D01*
Y118833D01*
X254470D01*
Y121161D01*
X254703D01*
Y121627D01*
X254936D01*
Y122093D01*
X255169D01*
Y122326D01*
X255401D01*
Y122559D01*
X255634D01*
Y122791D01*
X256100D01*
Y123024D01*
X256799D01*
Y123257D01*
X258661D01*
Y123024D01*
D02*
G37*
G36*
X274263Y112080D02*
X272400D01*
Y113477D01*
X274263D01*
Y112080D01*
D02*
G37*
G36*
X249347D02*
X247484D01*
Y113477D01*
X249347D01*
Y112080D01*
D02*
G37*
G36*
X266113Y109751D02*
X265181D01*
Y109518D01*
X264483D01*
Y105560D01*
Y105327D01*
X262387D01*
Y111381D01*
X264250D01*
Y110916D01*
X264716D01*
Y111149D01*
X265181D01*
Y111381D01*
X266113D01*
Y109751D01*
D02*
G37*
G36*
X245388Y111381D02*
X245854D01*
Y111149D01*
X246320D01*
Y110683D01*
X246553D01*
Y109984D01*
X246786D01*
Y105327D01*
X244923D01*
Y109053D01*
X244690D01*
Y109751D01*
X244457D01*
Y109984D01*
X243293D01*
Y109518D01*
X243060D01*
Y106724D01*
Y106491D01*
Y105327D01*
X241197D01*
Y111381D01*
X243060D01*
Y110916D01*
X243293D01*
Y111149D01*
X243526D01*
Y111381D01*
X244224D01*
Y111614D01*
X245388D01*
Y111381D01*
D02*
G37*
G36*
X270072D02*
X270770D01*
Y111149D01*
X271236D01*
Y110916D01*
X271702D01*
Y110450D01*
X271469D01*
Y110217D01*
X271236D01*
Y109984D01*
X271003D01*
Y109751D01*
X270770D01*
Y109518D01*
X270537D01*
Y109751D01*
X270072D01*
Y109984D01*
X269606D01*
Y110217D01*
X268442D01*
Y109984D01*
X268209D01*
Y109518D01*
X268674D01*
Y109286D01*
X269839D01*
Y109053D01*
X270537D01*
Y108820D01*
X271003D01*
Y108587D01*
X271469D01*
Y108354D01*
X271702D01*
Y107656D01*
X271934D01*
Y106724D01*
X271702D01*
Y106258D01*
X271469D01*
Y106026D01*
X271236D01*
Y105793D01*
X271003D01*
Y105560D01*
X270537D01*
Y105327D01*
X270072D01*
Y105094D01*
X267976D01*
Y105327D01*
X267277D01*
Y105560D01*
X266811D01*
Y105793D01*
X266346D01*
Y106026D01*
X266113D01*
Y106491D01*
X266346D01*
Y106724D01*
X266579D01*
Y106957D01*
X266811D01*
Y107190D01*
X267044D01*
Y107423D01*
X267277D01*
Y107190D01*
X267510D01*
Y106957D01*
X267976D01*
Y106724D01*
X268442D01*
Y106491D01*
X269373D01*
Y106724D01*
X269839D01*
Y107423D01*
X269373D01*
Y107656D01*
X267976D01*
Y107888D01*
X267277D01*
Y108121D01*
X267044D01*
Y108354D01*
X266811D01*
Y108587D01*
X266579D01*
Y109053D01*
X266346D01*
Y109984D01*
X266579D01*
Y110450D01*
X266811D01*
Y110916D01*
X267044D01*
Y111149D01*
X267510D01*
Y111381D01*
X268209D01*
Y111614D01*
X270072D01*
Y111381D01*
D02*
G37*
G36*
X255634Y110683D02*
X255401D01*
Y109984D01*
X255169D01*
Y109286D01*
X254936D01*
Y108587D01*
X254703D01*
Y107888D01*
X254470D01*
Y107190D01*
X254237D01*
Y106491D01*
X254004D01*
Y105793D01*
X253771D01*
Y105327D01*
X251676D01*
Y106026D01*
X251443D01*
Y106724D01*
X251210D01*
Y107423D01*
X250977D01*
Y107656D01*
Y107888D01*
Y108121D01*
X250744D01*
Y108820D01*
X250511D01*
Y109518D01*
X250278D01*
Y110450D01*
X250046D01*
Y111149D01*
X249813D01*
Y111381D01*
X251908D01*
Y110450D01*
X252141D01*
Y109751D01*
X252374D01*
Y108820D01*
X252607D01*
Y107888D01*
X253073D01*
Y108820D01*
X253306D01*
Y109751D01*
X253538D01*
Y110683D01*
X253771D01*
Y111381D01*
X255634D01*
Y110683D01*
D02*
G37*
G36*
X284975Y111149D02*
X284742D01*
Y110450D01*
X284509D01*
Y109751D01*
X284276D01*
Y109053D01*
X284043D01*
Y108354D01*
X283810D01*
Y107888D01*
Y107656D01*
X283577D01*
Y106957D01*
X283345D01*
Y106258D01*
X283112D01*
Y105560D01*
X282879D01*
Y104861D01*
X282646D01*
Y104163D01*
X282413D01*
Y103697D01*
X282180D01*
Y103464D01*
X281715D01*
Y103231D01*
X279619D01*
Y104628D01*
X280783D01*
Y106026D01*
X280550D01*
Y106724D01*
X280317D01*
Y107423D01*
X280084D01*
Y108354D01*
X279852D01*
Y109053D01*
X279619D01*
Y109751D01*
X279386D01*
Y110450D01*
X279153D01*
Y111381D01*
X281016D01*
Y110916D01*
X281249D01*
Y109751D01*
X281482D01*
Y108820D01*
X281715D01*
Y107888D01*
X281947D01*
Y107656D01*
X282180D01*
Y108587D01*
X282413D01*
Y109751D01*
X282646D01*
Y110683D01*
X282879D01*
Y111381D01*
X284975D01*
Y111149D01*
D02*
G37*
G36*
X240265Y107190D02*
X240033D01*
Y106724D01*
X239800D01*
Y106258D01*
X239567D01*
Y106026D01*
X239334D01*
Y105793D01*
X239101D01*
Y105560D01*
X238635D01*
Y105327D01*
X237937D01*
Y105094D01*
X235608D01*
Y105327D01*
X234910D01*
Y105560D01*
X234444D01*
Y105793D01*
X234211D01*
Y106026D01*
X233978D01*
Y106258D01*
X233745D01*
Y106724D01*
X233513D01*
Y107190D01*
X233280D01*
Y113477D01*
X235375D01*
Y107423D01*
X235608D01*
Y107190D01*
X235841D01*
Y106957D01*
X237704D01*
Y107190D01*
X237937D01*
Y107423D01*
X238170D01*
Y113477D01*
X240265D01*
Y107190D01*
D02*
G37*
G36*
X274263Y110450D02*
Y110217D01*
Y105327D01*
X272400D01*
Y111381D01*
X274263D01*
Y110450D01*
D02*
G37*
G36*
X249347Y105327D02*
X247484D01*
Y111381D01*
X249347D01*
Y105327D01*
D02*
G37*
G36*
X277290Y113011D02*
X277523D01*
Y112080D01*
Y111847D01*
Y111381D01*
X278687D01*
Y109984D01*
X277523D01*
Y106724D01*
X278687D01*
Y105327D01*
X277989D01*
Y105094D01*
X277057D01*
Y105327D01*
X276359D01*
Y105560D01*
X275893D01*
Y106026D01*
X275660D01*
Y109984D01*
X274962D01*
Y110217D01*
X274729D01*
Y111149D01*
X274962D01*
Y111381D01*
X275660D01*
Y113244D01*
X277290D01*
Y113011D01*
D02*
G37*
G36*
X259593Y111381D02*
X260291D01*
Y111149D01*
X260757D01*
Y110916D01*
X260990D01*
Y110683D01*
X261223D01*
Y110217D01*
X261456D01*
Y109751D01*
X261689D01*
Y108820D01*
X261922D01*
Y107888D01*
X257497D01*
Y107423D01*
X257730D01*
Y106957D01*
X257963D01*
Y106724D01*
X258196D01*
Y106491D01*
X259593D01*
Y106724D01*
X259826D01*
Y106957D01*
X260059D01*
Y107190D01*
X260291D01*
Y107423D01*
X260990D01*
Y107190D01*
X261456D01*
Y106957D01*
X261689D01*
Y106491D01*
X261456D01*
Y106258D01*
X261223D01*
Y106026D01*
X260990D01*
Y105793D01*
X260757D01*
Y105560D01*
X260524D01*
Y105327D01*
X259826D01*
Y105094D01*
X257497D01*
Y105327D01*
X257031D01*
Y105560D01*
X256799D01*
Y105793D01*
X256333D01*
Y106258D01*
X256100D01*
Y106491D01*
X255867D01*
Y107190D01*
X255634D01*
Y109286D01*
X255867D01*
Y109984D01*
X256100D01*
Y110450D01*
X256333D01*
Y110683D01*
X256566D01*
Y110916D01*
X256799D01*
Y111149D01*
X257264D01*
Y111381D01*
X257963D01*
Y111614D01*
X259593D01*
Y111381D01*
D02*
G37*
%LPC*%
G36*
X270152Y230687D02*
X249256D01*
Y230618D01*
X249047D01*
Y230549D01*
X248909D01*
Y230479D01*
X248770D01*
Y230410D01*
X248700D01*
Y230340D01*
X248631D01*
Y230271D01*
X248562D01*
Y230201D01*
X248492D01*
Y230132D01*
X248423D01*
Y230063D01*
X248353D01*
Y229993D01*
X248284D01*
Y229924D01*
X248215D01*
Y229785D01*
X248145D01*
Y229646D01*
X248076D01*
Y229368D01*
X248006D01*
Y218261D01*
X271401D01*
Y229368D01*
X271332D01*
Y229646D01*
X271262D01*
Y229785D01*
X271193D01*
Y229924D01*
X271124D01*
Y229993D01*
X271054D01*
Y230063D01*
X270985D01*
Y230132D01*
X270915D01*
Y230201D01*
X270846D01*
Y230271D01*
X270776D01*
Y230340D01*
X270707D01*
Y230410D01*
X270637D01*
Y230479D01*
X270499D01*
Y230549D01*
X270360D01*
Y230618D01*
X270152D01*
Y230687D01*
D02*
G37*
G36*
X235580D02*
X214684D01*
Y230618D01*
X214476D01*
Y230549D01*
X214337D01*
Y230479D01*
X214198D01*
Y230410D01*
X214129D01*
Y230340D01*
X214059D01*
Y230271D01*
X213920D01*
Y230201D01*
X213851D01*
Y230063D01*
X213781D01*
Y229993D01*
X213712D01*
Y229924D01*
X213643D01*
Y229785D01*
X213573D01*
Y229646D01*
X213504D01*
Y229438D01*
X213434D01*
Y208473D01*
X213504D01*
Y208264D01*
X213573D01*
Y208125D01*
X213643D01*
Y207987D01*
X213712D01*
Y207917D01*
X213781D01*
Y207848D01*
X213851D01*
Y207709D01*
X213920D01*
Y207640D01*
X214059D01*
Y207570D01*
X214129D01*
Y207501D01*
X214198D01*
Y207431D01*
X214337D01*
Y207362D01*
X214476D01*
Y207292D01*
X214684D01*
Y207223D01*
X235580D01*
Y207292D01*
X235788D01*
Y207362D01*
X235927D01*
Y207431D01*
X236066D01*
Y207501D01*
X236135D01*
Y207570D01*
X236205D01*
Y207640D01*
X236343D01*
Y207709D01*
X236413D01*
Y207848D01*
X236482D01*
Y207917D01*
X236552D01*
Y207987D01*
X236621D01*
Y208125D01*
X236690D01*
Y208264D01*
X236760D01*
Y208473D01*
X236829D01*
Y229368D01*
X236760D01*
Y229646D01*
X236690D01*
Y229785D01*
X236621D01*
Y229924D01*
X236552D01*
Y229993D01*
X236482D01*
Y230063D01*
X236413D01*
Y230201D01*
X236343D01*
Y230271D01*
X236205D01*
Y230340D01*
X236135D01*
Y230410D01*
X236066D01*
Y230479D01*
X235927D01*
Y230549D01*
X235788D01*
Y230618D01*
X235580D01*
Y230687D01*
D02*
G37*
G36*
X270152Y195699D02*
X249256D01*
Y195630D01*
X249047D01*
Y195560D01*
X248909D01*
Y195491D01*
X248770D01*
Y195421D01*
X248700D01*
Y195352D01*
X248631D01*
Y195282D01*
X248492D01*
Y195213D01*
X248423D01*
Y195074D01*
X248353D01*
Y195005D01*
X248284D01*
Y194935D01*
X248215D01*
Y194797D01*
X248145D01*
Y194658D01*
X248076D01*
Y194449D01*
X248006D01*
Y173484D01*
X248076D01*
Y173276D01*
X248145D01*
Y173137D01*
X248215D01*
Y172998D01*
X248284D01*
Y172929D01*
X248353D01*
Y172860D01*
X248423D01*
Y172721D01*
X248492D01*
Y172651D01*
X248631D01*
Y172582D01*
X248700D01*
Y172512D01*
X248770D01*
Y172443D01*
X248909D01*
Y172373D01*
X249047D01*
Y172304D01*
X249256D01*
Y172235D01*
X270152D01*
Y172304D01*
X270360D01*
Y172373D01*
X270499D01*
Y172443D01*
X270637D01*
Y172512D01*
X270707D01*
Y172582D01*
X270776D01*
Y172651D01*
X270915D01*
Y172721D01*
X270985D01*
Y172860D01*
X271054D01*
Y172929D01*
X271124D01*
Y172998D01*
X271193D01*
Y173137D01*
X271262D01*
Y173276D01*
X271332D01*
Y173484D01*
X271401D01*
Y194380D01*
X271332D01*
Y194658D01*
X271262D01*
Y194797D01*
X271193D01*
Y194935D01*
X271124D01*
Y195005D01*
X271054D01*
Y195074D01*
X270985D01*
Y195213D01*
X270915D01*
Y195282D01*
X270776D01*
Y195352D01*
X270707D01*
Y195421D01*
X270637D01*
Y195491D01*
X270499D01*
Y195560D01*
X270360D01*
Y195630D01*
X270152D01*
Y195699D01*
D02*
G37*
%LPD*%
G36*
X252866Y194449D02*
X253213D01*
Y194380D01*
X253421D01*
Y194311D01*
X253560D01*
Y194241D01*
X253768D01*
Y194172D01*
X253907D01*
Y194102D01*
X253976D01*
Y194033D01*
X254115D01*
Y193964D01*
X254185D01*
Y193894D01*
X254324D01*
Y193825D01*
X254393D01*
Y193755D01*
X254462D01*
Y193686D01*
X254532D01*
Y193616D01*
X254601D01*
Y193547D01*
X254671D01*
Y193478D01*
X254740D01*
Y193408D01*
X254809D01*
Y193339D01*
X254879D01*
Y193200D01*
X254948D01*
Y193131D01*
X255018D01*
Y192992D01*
X255087D01*
Y192922D01*
X255157D01*
Y192783D01*
X255226D01*
Y192645D01*
X255295D01*
Y192436D01*
X255365D01*
Y192228D01*
X255434D01*
Y191950D01*
X255504D01*
Y190701D01*
X255573D01*
Y190631D01*
X255643D01*
Y190562D01*
X255712D01*
Y190492D01*
X255781D01*
Y190423D01*
X255851D01*
Y190354D01*
X255920D01*
Y190284D01*
X255990D01*
Y190215D01*
X256059D01*
Y190145D01*
X256129D01*
Y190076D01*
X256198D01*
Y190006D01*
X256267D01*
Y189937D01*
X256337D01*
Y189868D01*
X256406D01*
Y189798D01*
X256476D01*
Y189729D01*
X256545D01*
Y189659D01*
X256614D01*
Y189590D01*
X256684D01*
Y189521D01*
X256753D01*
Y189451D01*
X256823D01*
Y189382D01*
X256892D01*
Y189312D01*
X256961D01*
Y189243D01*
X257031D01*
Y189173D01*
X257100D01*
Y189104D01*
X257170D01*
Y189035D01*
X257378D01*
Y189104D01*
X257586D01*
Y189173D01*
X257725D01*
Y189243D01*
X257933D01*
Y189312D01*
X258142D01*
Y189382D01*
X258419D01*
Y189451D01*
X258767D01*
Y189521D01*
X260502D01*
Y189451D01*
X260849D01*
Y189382D01*
X261127D01*
Y189312D01*
X261335D01*
Y189243D01*
X261543D01*
Y189173D01*
X261752D01*
Y189104D01*
X261891D01*
Y189035D01*
X262029D01*
Y188965D01*
X262168D01*
Y188896D01*
X262307D01*
Y188826D01*
X262446D01*
Y188757D01*
X262585D01*
Y188688D01*
X262654D01*
Y188618D01*
X262793D01*
Y188549D01*
X262862D01*
Y188479D01*
X262932D01*
Y188410D01*
X263071D01*
Y188340D01*
X263140D01*
Y188271D01*
X263210D01*
Y188202D01*
X263279D01*
Y188132D01*
X263348D01*
Y188063D01*
X263418D01*
Y187993D01*
X263487D01*
Y187924D01*
X263557D01*
Y187855D01*
X263626D01*
Y187785D01*
X263695D01*
Y187716D01*
X263765D01*
Y187646D01*
X263834D01*
Y187577D01*
X263904D01*
Y187507D01*
X263973D01*
Y187369D01*
X264042D01*
Y187299D01*
X264112D01*
Y187230D01*
X264181D01*
Y187091D01*
X264251D01*
Y187021D01*
X264320D01*
Y186883D01*
X264390D01*
Y186744D01*
X264459D01*
Y186605D01*
X264528D01*
Y186466D01*
X264598D01*
Y186327D01*
X264667D01*
Y186188D01*
X264737D01*
Y185980D01*
X264806D01*
Y185841D01*
X264876D01*
Y185564D01*
X264945D01*
Y185355D01*
X265014D01*
Y185008D01*
X265084D01*
Y184383D01*
X265153D01*
Y183689D01*
X265084D01*
Y183134D01*
X265014D01*
Y182787D01*
X264945D01*
Y182578D01*
X264876D01*
Y182301D01*
X264806D01*
Y182162D01*
X264737D01*
Y181954D01*
X264667D01*
Y181815D01*
X264598D01*
Y181606D01*
X264667D01*
Y181537D01*
X264737D01*
Y181468D01*
X264806D01*
Y181398D01*
X264876D01*
Y181329D01*
X264945D01*
Y181259D01*
X265014D01*
Y181190D01*
X265084D01*
Y181121D01*
X265153D01*
Y181051D01*
X265223D01*
Y180982D01*
X265292D01*
Y180912D01*
X265361D01*
Y180843D01*
X265431D01*
Y180773D01*
X265500D01*
Y180704D01*
X265570D01*
Y180635D01*
X265639D01*
Y180565D01*
X265709D01*
Y180496D01*
X265778D01*
Y180426D01*
X265847D01*
Y180357D01*
X265917D01*
Y180288D01*
X265986D01*
Y180218D01*
X266056D01*
Y180149D01*
X266125D01*
Y180079D01*
X266195D01*
Y180010D01*
X266264D01*
Y179940D01*
X267444D01*
Y179871D01*
X267791D01*
Y179802D01*
X268000D01*
Y179732D01*
X268138D01*
Y179663D01*
X268347D01*
Y179593D01*
X268485D01*
Y179524D01*
X268555D01*
Y179455D01*
X268694D01*
Y179385D01*
X268763D01*
Y179316D01*
X268902D01*
Y179246D01*
X268971D01*
Y179177D01*
X269041D01*
Y179107D01*
X269110D01*
Y179038D01*
X269180D01*
Y178969D01*
X269249D01*
Y178899D01*
X269319D01*
Y178830D01*
X269388D01*
Y178760D01*
X269457D01*
Y178621D01*
X269527D01*
Y178552D01*
X269596D01*
Y178413D01*
X269666D01*
Y178344D01*
X269735D01*
Y178205D01*
X269805D01*
Y178066D01*
X269874D01*
Y177858D01*
X269943D01*
Y177649D01*
X270013D01*
Y177372D01*
X270082D01*
Y176192D01*
X270013D01*
Y175914D01*
X269943D01*
Y175706D01*
X269874D01*
Y175497D01*
X269805D01*
Y175359D01*
X269735D01*
Y175220D01*
X269666D01*
Y175081D01*
X269596D01*
Y175012D01*
X269527D01*
Y174942D01*
X269457D01*
Y174803D01*
X269388D01*
Y174734D01*
X269319D01*
Y174664D01*
X269249D01*
Y174595D01*
X269180D01*
Y174526D01*
X269110D01*
Y174456D01*
X269041D01*
Y174387D01*
X268971D01*
Y174317D01*
X268902D01*
Y174248D01*
X268763D01*
Y174179D01*
X268694D01*
Y174109D01*
X268555D01*
Y174040D01*
X268485D01*
Y173970D01*
X268347D01*
Y173901D01*
X268208D01*
Y173831D01*
X268000D01*
Y173762D01*
X267791D01*
Y173693D01*
X267444D01*
Y173623D01*
X266403D01*
Y173693D01*
X266056D01*
Y173762D01*
X265847D01*
Y173831D01*
X265709D01*
Y173901D01*
X265500D01*
Y173970D01*
X265431D01*
Y174040D01*
X265292D01*
Y174109D01*
X265153D01*
Y174179D01*
X265084D01*
Y174248D01*
X264945D01*
Y174317D01*
X264876D01*
Y174387D01*
X264806D01*
Y174456D01*
X264737D01*
Y174526D01*
X264667D01*
Y174595D01*
X264598D01*
Y174664D01*
X264528D01*
Y174734D01*
X264459D01*
Y174873D01*
X264390D01*
Y174942D01*
X264320D01*
Y175012D01*
X264251D01*
Y175150D01*
X264181D01*
Y175289D01*
X264112D01*
Y175428D01*
X264042D01*
Y175567D01*
X263973D01*
Y175775D01*
X263904D01*
Y175983D01*
X263834D01*
Y176330D01*
X263765D01*
Y177233D01*
X263834D01*
Y177372D01*
X263765D01*
Y177441D01*
X263695D01*
Y177511D01*
X263626D01*
Y177580D01*
X263557D01*
Y177649D01*
X263487D01*
Y177719D01*
X263418D01*
Y177788D01*
X263348D01*
Y177858D01*
X263279D01*
Y177927D01*
X263210D01*
Y177997D01*
X263140D01*
Y178066D01*
X263071D01*
Y178136D01*
X263001D01*
Y178205D01*
X262932D01*
Y178274D01*
X262862D01*
Y178344D01*
X262793D01*
Y178413D01*
X262723D01*
Y178483D01*
X262654D01*
Y178552D01*
X262585D01*
Y178621D01*
X262515D01*
Y178691D01*
X262446D01*
Y178760D01*
X262376D01*
Y178830D01*
X262307D01*
Y178899D01*
X262238D01*
Y178969D01*
X262168D01*
Y179038D01*
X262099D01*
Y179107D01*
X261891D01*
Y179038D01*
X261752D01*
Y178969D01*
X261543D01*
Y178899D01*
X261335D01*
Y178830D01*
X261127D01*
Y178760D01*
X260849D01*
Y178691D01*
X260502D01*
Y178621D01*
X259877D01*
Y178552D01*
X259391D01*
Y178621D01*
X258767D01*
Y178691D01*
X258419D01*
Y178760D01*
X258142D01*
Y178830D01*
X257933D01*
Y178899D01*
X257725D01*
Y178969D01*
X257517D01*
Y179038D01*
X257378D01*
Y179107D01*
X257239D01*
Y179177D01*
X257100D01*
Y179246D01*
X256961D01*
Y179316D01*
X256823D01*
Y179385D01*
X256753D01*
Y179455D01*
X256614D01*
Y179524D01*
X256545D01*
Y179593D01*
X256406D01*
Y179663D01*
X256337D01*
Y179732D01*
X256267D01*
Y179802D01*
X256129D01*
Y179871D01*
X256059D01*
Y179940D01*
X255990D01*
Y180010D01*
X255920D01*
Y180079D01*
X255851D01*
Y180149D01*
X255781D01*
Y180218D01*
X255712D01*
Y180288D01*
X255643D01*
Y180357D01*
X255573D01*
Y180426D01*
X255504D01*
Y180496D01*
X255434D01*
Y180565D01*
X255365D01*
Y180704D01*
X255295D01*
Y180773D01*
X255226D01*
Y180843D01*
X255157D01*
Y180982D01*
X255087D01*
Y181051D01*
X255018D01*
Y181190D01*
X254948D01*
Y181259D01*
X254879D01*
Y181398D01*
X254809D01*
Y181537D01*
X254740D01*
Y181676D01*
X254671D01*
Y181815D01*
X254601D01*
Y182023D01*
X254532D01*
Y182162D01*
X254462D01*
Y182370D01*
X254393D01*
Y182578D01*
X254324D01*
Y182856D01*
X254254D01*
Y183273D01*
X254185D01*
Y184869D01*
X254254D01*
Y185216D01*
X254324D01*
Y185494D01*
X254393D01*
Y185772D01*
X254462D01*
Y185980D01*
X254532D01*
Y186119D01*
X254601D01*
Y186327D01*
X254671D01*
Y186536D01*
X254601D01*
Y186605D01*
X254532D01*
Y186674D01*
X254462D01*
Y186744D01*
X254393D01*
Y186813D01*
X254324D01*
Y186883D01*
X254254D01*
Y186952D01*
X254185D01*
Y187021D01*
X254115D01*
Y187091D01*
X254046D01*
Y187160D01*
X253976D01*
Y187230D01*
X253907D01*
Y187299D01*
X253838D01*
Y187369D01*
X253768D01*
Y187438D01*
X253699D01*
Y187507D01*
X253629D01*
Y187577D01*
X253560D01*
Y187646D01*
X253490D01*
Y187716D01*
X253421D01*
Y187785D01*
X253352D01*
Y187855D01*
X253282D01*
Y187924D01*
X253213D01*
Y187993D01*
X253143D01*
Y188063D01*
X253074D01*
Y188132D01*
X253005D01*
Y188202D01*
X251824D01*
Y188271D01*
X251477D01*
Y188340D01*
X251269D01*
Y188410D01*
X251130D01*
Y188479D01*
X250922D01*
Y188549D01*
X250852D01*
Y188618D01*
X250714D01*
Y188688D01*
X250575D01*
Y188757D01*
X250505D01*
Y188826D01*
X250366D01*
Y188896D01*
X250297D01*
Y188965D01*
X250228D01*
Y189035D01*
X250158D01*
Y189104D01*
X250089D01*
Y189173D01*
X250019D01*
Y189243D01*
X249950D01*
Y189312D01*
X249881D01*
Y189451D01*
X249811D01*
Y189521D01*
X249742D01*
Y189590D01*
X249672D01*
Y189729D01*
X249603D01*
Y189868D01*
X249534D01*
Y190006D01*
X249464D01*
Y190145D01*
X249395D01*
Y190354D01*
X249325D01*
Y190562D01*
X249256D01*
Y190909D01*
X249186D01*
Y191812D01*
X249256D01*
Y192159D01*
X249325D01*
Y192367D01*
X249395D01*
Y192575D01*
X249464D01*
Y192714D01*
X249534D01*
Y192853D01*
X249603D01*
Y192992D01*
X249672D01*
Y193131D01*
X249742D01*
Y193200D01*
X249811D01*
Y193269D01*
X249881D01*
Y193408D01*
X249950D01*
Y193478D01*
X250019D01*
Y193547D01*
X250089D01*
Y193616D01*
X250158D01*
Y193686D01*
X250228D01*
Y193755D01*
X250297D01*
Y193825D01*
X250436D01*
Y193894D01*
X250505D01*
Y193964D01*
X250575D01*
Y194033D01*
X250714D01*
Y194102D01*
X250852D01*
Y194172D01*
X250991D01*
Y194241D01*
X251130D01*
Y194311D01*
X251338D01*
Y194380D01*
X251547D01*
Y194449D01*
X251824D01*
Y194519D01*
X252866D01*
Y194449D01*
D02*
G37*
%LPC*%
G36*
X254879Y189382D02*
X254809D01*
Y189312D01*
X254740D01*
Y189243D01*
X254671D01*
Y189173D01*
X254601D01*
Y189104D01*
X254532D01*
Y189035D01*
X254462D01*
Y188965D01*
X254393D01*
Y188896D01*
X254324D01*
Y188826D01*
X254393D01*
Y188757D01*
X254462D01*
Y188688D01*
X254532D01*
Y188618D01*
X254601D01*
Y188549D01*
X254671D01*
Y188479D01*
X254740D01*
Y188410D01*
X254809D01*
Y188340D01*
X254879D01*
Y188271D01*
X254948D01*
Y188202D01*
X255018D01*
Y188132D01*
X255087D01*
Y188063D01*
X255157D01*
Y187993D01*
X255226D01*
Y187924D01*
X255295D01*
Y187855D01*
X255365D01*
Y187785D01*
X255434D01*
Y187716D01*
X255573D01*
Y187785D01*
X255643D01*
Y187855D01*
X255712D01*
Y187924D01*
X255781D01*
Y187993D01*
X255851D01*
Y188063D01*
X255920D01*
Y188132D01*
X255990D01*
Y188271D01*
X255920D01*
Y188340D01*
X255851D01*
Y188410D01*
X255781D01*
Y188479D01*
X255712D01*
Y188549D01*
X255643D01*
Y188618D01*
X255573D01*
Y188688D01*
X255504D01*
Y188757D01*
X255434D01*
Y188826D01*
X255365D01*
Y188896D01*
X255295D01*
Y188965D01*
X255226D01*
Y189035D01*
X255157D01*
Y189104D01*
X255087D01*
Y189173D01*
X255018D01*
Y189243D01*
X254948D01*
Y189312D01*
X254879D01*
Y189382D01*
D02*
G37*
G36*
X260363Y188688D02*
X258905D01*
Y188618D01*
X258558D01*
Y188549D01*
X258280D01*
Y188479D01*
X258072D01*
Y188410D01*
X257933D01*
Y188340D01*
X257725D01*
Y188271D01*
X257586D01*
Y188202D01*
X257448D01*
Y188132D01*
X257378D01*
Y188063D01*
X257239D01*
Y187993D01*
X257100D01*
Y187924D01*
X257031D01*
Y187855D01*
X256892D01*
Y187785D01*
X256823D01*
Y187716D01*
X256753D01*
Y187646D01*
X256684D01*
Y187577D01*
X256545D01*
Y187507D01*
X256476D01*
Y187438D01*
X256406D01*
Y187369D01*
X256337D01*
Y187299D01*
X256267D01*
Y187230D01*
X256198D01*
Y187091D01*
X256129D01*
Y187021D01*
X256059D01*
Y186952D01*
X255990D01*
Y186883D01*
X255920D01*
Y186744D01*
X255851D01*
Y186674D01*
X255781D01*
Y186605D01*
X255712D01*
Y186466D01*
X255643D01*
Y186327D01*
X255573D01*
Y186188D01*
X255504D01*
Y186049D01*
X255434D01*
Y185911D01*
X255365D01*
Y185772D01*
X255295D01*
Y185564D01*
X255226D01*
Y185355D01*
X255157D01*
Y185078D01*
X255087D01*
Y184731D01*
X255018D01*
Y183412D01*
X255087D01*
Y182995D01*
X255157D01*
Y182717D01*
X255226D01*
Y182509D01*
X255295D01*
Y182370D01*
X255365D01*
Y182162D01*
X255434D01*
Y182023D01*
X255504D01*
Y181884D01*
X255573D01*
Y181815D01*
X255643D01*
Y181676D01*
X255712D01*
Y181537D01*
X255781D01*
Y181468D01*
X255851D01*
Y181329D01*
X255920D01*
Y181259D01*
X255990D01*
Y181190D01*
X256059D01*
Y181051D01*
X256129D01*
Y180982D01*
X256198D01*
Y180912D01*
X256267D01*
Y180843D01*
X256337D01*
Y180773D01*
X256406D01*
Y180704D01*
X256476D01*
Y180635D01*
X256545D01*
Y180565D01*
X256614D01*
Y180496D01*
X256753D01*
Y180426D01*
X256823D01*
Y180357D01*
X256892D01*
Y180288D01*
X257031D01*
Y180218D01*
X257100D01*
Y180149D01*
X257239D01*
Y180079D01*
X257309D01*
Y180010D01*
X257448D01*
Y179940D01*
X257586D01*
Y179871D01*
X257725D01*
Y179802D01*
X257933D01*
Y179732D01*
X258072D01*
Y179663D01*
X258280D01*
Y179593D01*
X258558D01*
Y179524D01*
X258905D01*
Y179455D01*
X260363D01*
Y179524D01*
X260710D01*
Y179593D01*
X260988D01*
Y179663D01*
X261196D01*
Y179732D01*
X261404D01*
Y179802D01*
X261543D01*
Y179871D01*
X261682D01*
Y179940D01*
X261821D01*
Y180010D01*
X261960D01*
Y180079D01*
X262099D01*
Y180149D01*
X262168D01*
Y180218D01*
X262307D01*
Y180288D01*
X262376D01*
Y180357D01*
X262446D01*
Y180426D01*
X262585D01*
Y180496D01*
X262654D01*
Y180565D01*
X262723D01*
Y180635D01*
X262793D01*
Y180704D01*
X262862D01*
Y180773D01*
X262932D01*
Y180843D01*
X263001D01*
Y180912D01*
X263071D01*
Y180982D01*
X263140D01*
Y181051D01*
X263210D01*
Y181121D01*
X263279D01*
Y181259D01*
X263348D01*
Y181329D01*
X263418D01*
Y181398D01*
X263487D01*
Y181537D01*
X263557D01*
Y181606D01*
X263626D01*
Y181745D01*
X263695D01*
Y181884D01*
X263765D01*
Y182023D01*
X263834D01*
Y182162D01*
X263904D01*
Y182301D01*
X263973D01*
Y182509D01*
X264042D01*
Y182717D01*
X264112D01*
Y182925D01*
X264181D01*
Y183273D01*
X264251D01*
Y184869D01*
X264181D01*
Y185216D01*
X264112D01*
Y185425D01*
X264042D01*
Y185633D01*
X263973D01*
Y185841D01*
X263904D01*
Y185980D01*
X263834D01*
Y186119D01*
X263765D01*
Y186258D01*
X263695D01*
Y186397D01*
X263626D01*
Y186536D01*
X263557D01*
Y186605D01*
X263487D01*
Y186744D01*
X263418D01*
Y186813D01*
X263348D01*
Y186883D01*
X263279D01*
Y187021D01*
X263210D01*
Y187091D01*
X263140D01*
Y187160D01*
X263071D01*
Y187230D01*
X263001D01*
Y187299D01*
X262932D01*
Y187369D01*
X262862D01*
Y187438D01*
X262793D01*
Y187507D01*
X262723D01*
Y187577D01*
X262654D01*
Y187646D01*
X262585D01*
Y187716D01*
X262446D01*
Y187785D01*
X262376D01*
Y187855D01*
X262238D01*
Y187924D01*
X262168D01*
Y187993D01*
X262029D01*
Y188063D01*
X261960D01*
Y188132D01*
X261821D01*
Y188202D01*
X261682D01*
Y188271D01*
X261543D01*
Y188340D01*
X261404D01*
Y188410D01*
X261196D01*
Y188479D01*
X260988D01*
Y188549D01*
X260710D01*
Y188618D01*
X260363D01*
Y188688D01*
D02*
G37*
G36*
X263834Y180426D02*
X263695D01*
Y180357D01*
X263626D01*
Y180288D01*
X263557D01*
Y180218D01*
X263487D01*
Y180149D01*
X263418D01*
Y180079D01*
X263348D01*
Y180010D01*
X263279D01*
Y179871D01*
X263348D01*
Y179802D01*
X263418D01*
Y179732D01*
X263487D01*
Y179663D01*
X263557D01*
Y179593D01*
X263626D01*
Y179524D01*
X263695D01*
Y179455D01*
X263765D01*
Y179385D01*
X263834D01*
Y179316D01*
X263904D01*
Y179246D01*
X263973D01*
Y179177D01*
X264042D01*
Y179107D01*
X264112D01*
Y179038D01*
X264181D01*
Y178969D01*
X264251D01*
Y178899D01*
X264320D01*
Y178830D01*
X264390D01*
Y178760D01*
X264459D01*
Y178830D01*
X264528D01*
Y178899D01*
X264598D01*
Y178969D01*
X264667D01*
Y179038D01*
X264737D01*
Y179107D01*
X264806D01*
Y179177D01*
X264876D01*
Y179246D01*
X264945D01*
Y179316D01*
X264876D01*
Y179385D01*
X264806D01*
Y179455D01*
X264737D01*
Y179524D01*
X264667D01*
Y179593D01*
X264598D01*
Y179663D01*
X264528D01*
Y179732D01*
X264459D01*
Y179802D01*
X264390D01*
Y179871D01*
X264320D01*
Y179940D01*
X264251D01*
Y180010D01*
X264181D01*
Y180079D01*
X264112D01*
Y180149D01*
X264042D01*
Y180218D01*
X263973D01*
Y180288D01*
X263904D01*
Y180357D01*
X263834D01*
Y180426D01*
D02*
G37*
G36*
X234330Y195699D02*
X214753D01*
Y195630D01*
X214545D01*
Y195560D01*
X214406D01*
Y195491D01*
X214267D01*
Y195421D01*
X214198D01*
Y195352D01*
X214129D01*
Y195282D01*
X213990D01*
Y195213D01*
X213920D01*
Y195074D01*
X213851D01*
Y195005D01*
X213781D01*
Y194935D01*
X213712D01*
Y194797D01*
X213643D01*
Y194658D01*
X213573D01*
Y194449D01*
X213504D01*
Y187299D01*
X213573D01*
Y187021D01*
X213643D01*
Y186883D01*
X213712D01*
Y186744D01*
X213781D01*
Y186674D01*
X213851D01*
Y186605D01*
X213920D01*
Y186536D01*
X213990D01*
Y186466D01*
X214059D01*
Y186397D01*
X214129D01*
Y186327D01*
X214198D01*
Y186258D01*
X214267D01*
Y186188D01*
X214406D01*
Y186119D01*
X214545D01*
Y186049D01*
X214753D01*
Y185980D01*
X234330D01*
Y186049D01*
X234539D01*
Y186119D01*
X234677D01*
Y186188D01*
X234816D01*
Y186258D01*
X234886D01*
Y186327D01*
X234955D01*
Y186397D01*
X235024D01*
Y186466D01*
X235094D01*
Y186536D01*
X235163D01*
Y186605D01*
X235233D01*
Y186674D01*
X235302D01*
Y186813D01*
X235371D01*
Y186952D01*
X235441D01*
Y187160D01*
X235510D01*
Y187577D01*
X235580D01*
Y194102D01*
X235510D01*
Y194588D01*
X235441D01*
Y194727D01*
X235371D01*
Y194866D01*
X235302D01*
Y195005D01*
X235233D01*
Y195074D01*
X235163D01*
Y195144D01*
X235094D01*
Y195213D01*
X235024D01*
Y195282D01*
X234955D01*
Y195352D01*
X234886D01*
Y195421D01*
X234816D01*
Y195491D01*
X234677D01*
Y195560D01*
X234539D01*
Y195630D01*
X234330D01*
Y195699D01*
D02*
G37*
G36*
X235649Y182578D02*
X214753D01*
Y182509D01*
X214545D01*
Y182440D01*
X214406D01*
Y182370D01*
X214267D01*
Y182301D01*
X214198D01*
Y182231D01*
X214129D01*
Y182162D01*
X214059D01*
Y182092D01*
X213990D01*
Y182023D01*
X213920D01*
Y181954D01*
X213851D01*
Y181884D01*
X213781D01*
Y181815D01*
X213712D01*
Y181676D01*
X213643D01*
Y181537D01*
X213573D01*
Y181259D01*
X213504D01*
Y173484D01*
X213573D01*
Y173276D01*
X213643D01*
Y173137D01*
X213712D01*
Y172998D01*
X213781D01*
Y172929D01*
X213851D01*
Y172860D01*
X213920D01*
Y172721D01*
X213990D01*
Y172651D01*
X214129D01*
Y172582D01*
X214198D01*
Y172512D01*
X214267D01*
Y172443D01*
X214406D01*
Y172373D01*
X214545D01*
Y172304D01*
X214753D01*
Y172235D01*
X235649D01*
Y172304D01*
X235858D01*
Y172373D01*
X235996D01*
Y172443D01*
X236135D01*
Y172512D01*
X236205D01*
Y172582D01*
X236274D01*
Y172651D01*
X236413D01*
Y172721D01*
X236482D01*
Y172860D01*
X236552D01*
Y172929D01*
X236621D01*
Y172998D01*
X236690D01*
Y173137D01*
X236760D01*
Y173276D01*
X236829D01*
Y173484D01*
X236899D01*
Y181259D01*
X236829D01*
Y181537D01*
X236760D01*
Y181676D01*
X236690D01*
Y181815D01*
X236621D01*
Y181884D01*
X236552D01*
Y181954D01*
X236482D01*
Y182023D01*
X236413D01*
Y182092D01*
X236343D01*
Y182162D01*
X236274D01*
Y182231D01*
X236205D01*
Y182301D01*
X236135D01*
Y182370D01*
X235996D01*
Y182440D01*
X235858D01*
Y182509D01*
X235649D01*
Y182578D01*
D02*
G37*
G36*
X293590Y156090D02*
X293357D01*
Y155858D01*
X293590D01*
Y156090D01*
D02*
G37*
G36*
X270304Y154926D02*
X270072D01*
Y154693D01*
X269839D01*
Y154460D01*
X269606D01*
Y154227D01*
X269373D01*
Y153995D01*
X269140D01*
Y153529D01*
X268907D01*
Y153296D01*
X268674D01*
Y153063D01*
X268442D01*
Y152830D01*
X268209D01*
Y152365D01*
X267976D01*
Y152132D01*
X267743D01*
Y151899D01*
X267510D01*
Y151666D01*
X267277D01*
Y151200D01*
X267044D01*
Y150968D01*
X266811D01*
Y151200D01*
X266113D01*
Y151433D01*
X265181D01*
Y151666D01*
X262154D01*
Y151433D01*
X261456D01*
Y151200D01*
X260990D01*
Y150968D01*
X260757D01*
Y150735D01*
X260524D01*
Y150269D01*
X260291D01*
Y149105D01*
X260524D01*
Y148639D01*
X260757D01*
Y148406D01*
X260990D01*
Y148173D01*
X261223D01*
Y147940D01*
X261689D01*
Y147707D01*
X262154D01*
Y147475D01*
X262620D01*
Y147242D01*
X263086D01*
Y147009D01*
X263784D01*
Y146776D01*
X264250D01*
Y146543D01*
X264949D01*
Y146310D01*
X265414D01*
Y146077D01*
X266113D01*
Y145844D01*
X266579D01*
Y145612D01*
X267044D01*
Y145379D01*
X267510D01*
Y145146D01*
X267976D01*
Y144913D01*
X268442D01*
Y144680D01*
X268674D01*
Y144447D01*
X269140D01*
Y144214D01*
X269373D01*
Y143982D01*
X269606D01*
Y143749D01*
X269839D01*
Y143516D01*
X270072D01*
Y143283D01*
X270304D01*
Y143050D01*
X270537D01*
Y142585D01*
X270770D01*
Y142352D01*
X271003D01*
Y141886D01*
X271236D01*
Y141420D01*
X271469D01*
Y140489D01*
X272400D01*
Y140256D01*
X273564D01*
Y140023D01*
X274496D01*
Y139790D01*
X275660D01*
Y139557D01*
X276592D01*
Y139790D01*
X276126D01*
Y140023D01*
X275660D01*
Y140256D01*
X275195D01*
Y140489D01*
X274496D01*
Y140722D01*
X274030D01*
Y140954D01*
X273564D01*
Y141187D01*
X272866D01*
Y141420D01*
X272400D01*
Y141653D01*
X271934D01*
Y141886D01*
X274496D01*
Y141653D01*
X277057D01*
Y141886D01*
X276592D01*
Y142119D01*
X275660D01*
Y142352D01*
X274962D01*
Y142585D01*
X274030D01*
Y142817D01*
X273099D01*
Y143050D01*
X272167D01*
Y143283D01*
X273099D01*
Y143516D01*
X275660D01*
Y143749D01*
X277290D01*
Y144214D01*
X274729D01*
Y144447D01*
X272167D01*
Y144680D01*
X272400D01*
Y144913D01*
X273332D01*
Y145146D01*
X274263D01*
Y145379D01*
X275195D01*
Y145612D01*
X276126D01*
Y145844D01*
X277057D01*
Y146310D01*
X275660D01*
Y146077D01*
X272167D01*
Y146310D01*
X272633D01*
Y146543D01*
X273099D01*
Y146776D01*
X273797D01*
Y147009D01*
X274263D01*
Y147242D01*
X274729D01*
Y147475D01*
X275195D01*
Y147707D01*
X275893D01*
Y147940D01*
X276359D01*
Y148406D01*
X275893D01*
Y148173D01*
X274962D01*
Y147940D01*
X273797D01*
Y147707D01*
X272866D01*
Y147475D01*
X271702D01*
Y147707D01*
X271934D01*
Y147940D01*
X272400D01*
Y148173D01*
X272633D01*
Y148406D01*
X273099D01*
Y148639D01*
X273332D01*
Y148872D01*
X273797D01*
Y149105D01*
X274030D01*
Y149337D01*
X274496D01*
Y149570D01*
X274729D01*
Y149803D01*
X275195D01*
Y150036D01*
X275427D01*
Y150269D01*
X274729D01*
Y150036D01*
X274263D01*
Y149803D01*
X273564D01*
Y149570D01*
X273099D01*
Y149337D01*
X272400D01*
Y149105D01*
X271934D01*
Y148872D01*
X271236D01*
Y148639D01*
X270770D01*
Y148872D01*
X271003D01*
Y149105D01*
X271236D01*
Y149337D01*
X271469D01*
Y149570D01*
X271702D01*
Y149803D01*
X271934D01*
Y150036D01*
X272167D01*
Y150269D01*
X272400D01*
Y150502D01*
X272633D01*
Y150735D01*
X272866D01*
Y150968D01*
X273099D01*
Y151200D01*
X273332D01*
Y151433D01*
X273797D01*
Y151666D01*
X274030D01*
Y152132D01*
X273564D01*
Y151899D01*
X273332D01*
Y151666D01*
X272866D01*
Y151433D01*
X272400D01*
Y151200D01*
X272167D01*
Y150968D01*
X271702D01*
Y150735D01*
X271236D01*
Y150502D01*
X271003D01*
Y150269D01*
X270537D01*
Y150036D01*
X270072D01*
Y149803D01*
X269839D01*
Y149570D01*
X269606D01*
Y150036D01*
X269839D01*
Y150269D01*
X270072D01*
Y150502D01*
X270304D01*
Y150968D01*
X270537D01*
Y151200D01*
X270770D01*
Y151433D01*
X271003D01*
Y151899D01*
X271236D01*
Y152132D01*
X271469D01*
Y152365D01*
X271702D01*
Y152830D01*
X271934D01*
Y153063D01*
X272167D01*
Y153296D01*
X272400D01*
Y153762D01*
X272167D01*
Y153529D01*
X271702D01*
Y153296D01*
X271469D01*
Y153063D01*
X271236D01*
Y152830D01*
X271003D01*
Y152597D01*
X270770D01*
Y152365D01*
X270537D01*
Y152132D01*
X270072D01*
Y151899D01*
X269839D01*
Y151666D01*
X269606D01*
Y151433D01*
X269373D01*
Y151200D01*
X269140D01*
Y150968D01*
X268907D01*
Y150735D01*
X268674D01*
Y150502D01*
X268442D01*
Y150968D01*
X268674D01*
Y151433D01*
X268907D01*
Y151899D01*
X269140D01*
Y152365D01*
X269373D01*
Y152830D01*
X269606D01*
Y153296D01*
X269839D01*
Y153762D01*
X270072D01*
Y154227D01*
X270304D01*
Y154926D01*
D02*
G37*
G36*
X252840Y152132D02*
X252374D01*
Y151899D01*
X252607D01*
Y151666D01*
X252840D01*
Y151433D01*
X253073D01*
Y151200D01*
X253306D01*
Y150968D01*
X253538D01*
Y150735D01*
X253771D01*
Y150968D01*
X254004D01*
Y151433D01*
X253538D01*
Y151666D01*
X253306D01*
Y151899D01*
X252840D01*
Y152132D01*
D02*
G37*
G36*
X251676Y150269D02*
X250977D01*
Y150036D01*
X251210D01*
Y149803D01*
X251676D01*
Y149570D01*
X251908D01*
Y149337D01*
X252374D01*
Y149105D01*
X252840D01*
Y148872D01*
X253073D01*
Y148639D01*
X253538D01*
Y148406D01*
X253771D01*
Y148639D01*
Y149337D01*
X253538D01*
Y149570D01*
X252840D01*
Y149803D01*
X252374D01*
Y150036D01*
X251676D01*
Y150269D01*
D02*
G37*
G36*
X250511Y148406D02*
X250046D01*
Y147940D01*
X250744D01*
Y147707D01*
X251210D01*
Y147475D01*
X251676D01*
Y147242D01*
X252374D01*
Y147009D01*
X252840D01*
Y146776D01*
X253306D01*
Y146543D01*
X253771D01*
Y146310D01*
X254237D01*
Y146776D01*
X254004D01*
Y147475D01*
X253771D01*
Y147707D01*
X252607D01*
Y147940D01*
X251676D01*
Y148173D01*
X250511D01*
Y148406D01*
D02*
G37*
G36*
X246087Y150735D02*
X245854D01*
Y150036D01*
X245621D01*
Y149105D01*
X245388D01*
Y148173D01*
X245156D01*
Y147242D01*
X244923D01*
Y146310D01*
X244690D01*
Y145379D01*
X244457D01*
Y144447D01*
X244224D01*
Y143516D01*
X243991D01*
Y142352D01*
X243758D01*
Y141420D01*
X243526D01*
Y140722D01*
X248416D01*
Y141420D01*
X248183D01*
Y141653D01*
Y141886D01*
Y142352D01*
X247950D01*
Y143283D01*
X247717D01*
Y144447D01*
X247484D01*
Y145379D01*
X247251D01*
Y146310D01*
X247018D01*
Y147242D01*
X246786D01*
Y148173D01*
X246553D01*
Y149105D01*
X246320D01*
Y150036D01*
X246087D01*
Y150735D01*
D02*
G37*
G36*
X271934Y140256D02*
X271702D01*
Y138859D01*
X272167D01*
Y138626D01*
X272866D01*
Y138393D01*
X273332D01*
Y138160D01*
X274030D01*
Y137927D01*
X274496D01*
Y137695D01*
X275195D01*
Y137462D01*
X275427D01*
Y137927D01*
X274962D01*
Y138160D01*
X274729D01*
Y138393D01*
X274263D01*
Y138626D01*
X274030D01*
Y138859D01*
X273564D01*
Y139092D01*
X273332D01*
Y139324D01*
X272866D01*
Y139557D01*
X272633D01*
Y139790D01*
X272167D01*
Y140023D01*
X271934D01*
Y140256D01*
D02*
G37*
G36*
X250977Y146310D02*
X249347D01*
Y146077D01*
X249580D01*
Y145844D01*
X250511D01*
Y145612D01*
X251443D01*
Y145379D01*
X252141D01*
Y145146D01*
X253073D01*
Y144913D01*
X254004D01*
Y144680D01*
X254237D01*
Y144447D01*
X251676D01*
Y144214D01*
X249347D01*
Y143982D01*
X249114D01*
Y143749D01*
X250977D01*
Y143516D01*
X253538D01*
Y143283D01*
X254470D01*
Y143050D01*
X253538D01*
Y142817D01*
X252607D01*
Y142585D01*
X251676D01*
Y142352D01*
X250744D01*
Y142119D01*
X249813D01*
Y141886D01*
X249347D01*
Y141653D01*
X252141D01*
Y141886D01*
X254470D01*
Y141653D01*
X254004D01*
Y141420D01*
X253538D01*
Y141187D01*
X253073D01*
Y140954D01*
X252374D01*
Y140722D01*
X251908D01*
Y140489D01*
X251443D01*
Y140256D01*
X250744D01*
Y140023D01*
X250278D01*
Y139790D01*
X250046D01*
Y139557D01*
X250977D01*
Y139790D01*
X251908D01*
Y140023D01*
X253073D01*
Y140256D01*
X254004D01*
Y140489D01*
X254936D01*
Y140256D01*
X254703D01*
Y140023D01*
X254237D01*
Y139790D01*
X254004D01*
Y139557D01*
X253538D01*
Y139324D01*
X253306D01*
Y139092D01*
X252840D01*
Y138859D01*
X252607D01*
Y138626D01*
X252141D01*
Y138393D01*
X251676D01*
Y138160D01*
X251443D01*
Y137927D01*
X250977D01*
Y137462D01*
X251443D01*
Y137695D01*
X251908D01*
Y137927D01*
X252607D01*
Y138160D01*
X253073D01*
Y138393D01*
X253771D01*
Y138626D01*
X254237D01*
Y138859D01*
X254703D01*
Y139092D01*
X255401D01*
Y139324D01*
X255867D01*
Y139092D01*
X255634D01*
Y138859D01*
X255401D01*
Y138626D01*
X255169D01*
Y138393D01*
X254936D01*
Y138160D01*
X254703D01*
Y137927D01*
X254470D01*
Y137695D01*
X254237D01*
Y137462D01*
X253771D01*
Y137229D01*
X253538D01*
Y136996D01*
X253306D01*
Y136763D01*
X253073D01*
Y136530D01*
X252840D01*
Y136297D01*
X252607D01*
Y136064D01*
X252374D01*
Y135832D01*
X253073D01*
Y136064D01*
X253306D01*
Y136297D01*
X253771D01*
Y136530D01*
X254237D01*
Y136763D01*
X254470D01*
Y136996D01*
X254936D01*
Y137229D01*
X255169D01*
Y137462D01*
X255634D01*
Y137695D01*
X256100D01*
Y137927D01*
X256333D01*
Y138160D01*
X256799D01*
Y137927D01*
X256566D01*
Y137462D01*
X256333D01*
Y137229D01*
X256100D01*
Y136996D01*
X255867D01*
Y136530D01*
X255634D01*
Y136297D01*
X255401D01*
Y136064D01*
X255169D01*
Y135599D01*
X254936D01*
Y135366D01*
X254703D01*
Y135133D01*
X254470D01*
Y134667D01*
X254237D01*
Y134202D01*
X254470D01*
Y134434D01*
X254703D01*
Y134667D01*
X254936D01*
Y134900D01*
X255401D01*
Y135133D01*
X255634D01*
Y135366D01*
X255867D01*
Y135599D01*
X256100D01*
Y135832D01*
X256333D01*
Y136064D01*
X256566D01*
Y136297D01*
X257031D01*
Y136530D01*
X257264D01*
Y136763D01*
X257497D01*
Y136996D01*
X257730D01*
Y137229D01*
X257963D01*
Y136763D01*
X257730D01*
Y136297D01*
X257497D01*
Y135832D01*
X257264D01*
Y135366D01*
X257031D01*
Y134900D01*
X256799D01*
Y134202D01*
X256566D01*
Y133736D01*
X256333D01*
Y133270D01*
X256100D01*
Y133037D01*
X256566D01*
Y133270D01*
X256799D01*
Y133503D01*
X257031D01*
Y133969D01*
X257264D01*
Y134202D01*
X257497D01*
Y134434D01*
X257730D01*
Y134667D01*
X257963D01*
Y135133D01*
X258196D01*
Y135366D01*
X258429D01*
Y135599D01*
X258661D01*
Y135832D01*
X258894D01*
Y136297D01*
X259127D01*
Y136530D01*
X259360D01*
Y136763D01*
X259826D01*
Y136530D01*
X260524D01*
Y136297D01*
X263319D01*
Y136530D01*
X264017D01*
Y136763D01*
X264483D01*
Y136996D01*
X264716D01*
Y137229D01*
X264949D01*
Y137462D01*
X265181D01*
Y137695D01*
X265414D01*
Y139092D01*
X265181D01*
Y139557D01*
X264949D01*
Y140023D01*
X264483D01*
Y140256D01*
X264250D01*
Y140489D01*
X264017D01*
Y140722D01*
X263551D01*
Y140954D01*
X262853D01*
Y141187D01*
X262387D01*
Y141420D01*
X261689D01*
Y141653D01*
X260990D01*
Y141886D01*
X260291D01*
Y142119D01*
X259593D01*
Y142352D01*
X259127D01*
Y142585D01*
X258429D01*
Y142817D01*
X257963D01*
Y143050D01*
X257497D01*
Y143283D01*
X257264D01*
Y143516D01*
X256799D01*
Y143749D01*
X256333D01*
Y143982D01*
X256100D01*
Y144214D01*
X255867D01*
Y144447D01*
X255634D01*
Y144680D01*
X255401D01*
Y144913D01*
X255169D01*
Y145146D01*
X254936D01*
Y145379D01*
X254703D01*
Y145844D01*
X254470D01*
Y146077D01*
X250977D01*
Y146310D01*
D02*
G37*
G36*
X271934Y138160D02*
X271702D01*
Y137695D01*
X271469D01*
Y137229D01*
X271702D01*
Y136996D01*
X271934D01*
Y136763D01*
X272400D01*
Y136530D01*
X272633D01*
Y136297D01*
X273099D01*
Y136064D01*
X273564D01*
Y135832D01*
X274030D01*
Y136064D01*
X273797D01*
Y136297D01*
X273564D01*
Y136530D01*
X273332D01*
Y136763D01*
X273099D01*
Y136996D01*
X272866D01*
Y137229D01*
X272633D01*
Y137462D01*
X272400D01*
Y137695D01*
X272167D01*
Y137927D01*
X271934D01*
Y138160D01*
D02*
G37*
G36*
X271469Y135832D02*
X271236D01*
Y135599D01*
X271003D01*
Y135133D01*
X271236D01*
Y134900D01*
X271469D01*
Y134667D01*
X271702D01*
Y134434D01*
X271934D01*
Y134202D01*
X272400D01*
Y134434D01*
X272167D01*
Y134900D01*
X271934D01*
Y135133D01*
X271702D01*
Y135366D01*
X271469D01*
Y135832D01*
D02*
G37*
%LPD*%
G36*
X270770Y148406D02*
X270537D01*
Y148639D01*
X270770D01*
Y148406D01*
D02*
G37*
G36*
X271702Y147242D02*
X271469D01*
Y147475D01*
X271702D01*
Y147242D01*
D02*
G37*
G36*
X255169Y140489D02*
X254936D01*
Y140722D01*
X255169D01*
Y140489D01*
D02*
G37*
G36*
X257031Y138160D02*
X256799D01*
Y138393D01*
X257031D01*
Y138160D01*
D02*
G37*
G36*
X258196Y137229D02*
X257963D01*
Y137462D01*
X258196D01*
Y137229D01*
D02*
G37*
%LPC*%
G36*
X290796Y119764D02*
X290330D01*
Y119531D01*
X289632D01*
Y119299D01*
X289166D01*
Y119066D01*
X288933D01*
Y118367D01*
X289166D01*
Y118134D01*
X289865D01*
Y118367D01*
X290330D01*
Y118600D01*
X290563D01*
Y118833D01*
Y119066D01*
X290796D01*
Y119764D01*
D02*
G37*
G36*
X271236D02*
X270770D01*
Y119531D01*
X270072D01*
Y119299D01*
X269606D01*
Y118833D01*
X269373D01*
Y118600D01*
X269606D01*
Y118134D01*
X270537D01*
Y118367D01*
X270770D01*
Y118600D01*
X271003D01*
Y118833D01*
X271236D01*
Y119764D01*
D02*
G37*
G36*
X237471Y122791D02*
X237238D01*
Y122093D01*
X237005D01*
Y121394D01*
X236773D01*
Y120463D01*
X236540D01*
Y119997D01*
Y119764D01*
X238403D01*
Y119997D01*
X238170D01*
Y120929D01*
X237937D01*
Y121627D01*
X237704D01*
Y122326D01*
X237471D01*
Y122791D01*
D02*
G37*
G36*
X300576Y121860D02*
X299645D01*
Y121627D01*
X299179D01*
Y121161D01*
X298946D01*
Y120696D01*
X301275D01*
Y121161D01*
X301042D01*
Y121627D01*
X300576D01*
Y121860D01*
D02*
G37*
G36*
X258429Y121627D02*
X257031D01*
Y121394D01*
X256799D01*
Y121161D01*
X256566D01*
Y120696D01*
X256333D01*
Y119299D01*
X256566D01*
Y118833D01*
X256799D01*
Y118600D01*
X257031D01*
Y118367D01*
X257497D01*
Y118134D01*
X257963D01*
Y118367D01*
X258661D01*
Y118600D01*
X258894D01*
Y119066D01*
X259127D01*
Y120929D01*
X258894D01*
Y121161D01*
X258661D01*
Y121394D01*
X258429D01*
Y121627D01*
D02*
G37*
G36*
X259360Y110217D02*
X258196D01*
Y109984D01*
X257963D01*
Y109751D01*
X257730D01*
Y109286D01*
X257497D01*
Y109053D01*
X259826D01*
Y109751D01*
X259593D01*
Y109984D01*
X259360D01*
Y110217D01*
D02*
G37*
%LPD*%
D16*
X113300Y123142D02*
Y131800D01*
X143780Y142106D02*
Y157000D01*
X121646Y179134D02*
X143780Y157000D01*
X105416Y179134D02*
X121646D01*
X102550Y182000D02*
X105416Y179134D01*
X102550Y182000D02*
Y198022D01*
X108268Y203740D01*
X162400Y247757D02*
X189961Y220197D01*
X162400Y247757D02*
Y278800D01*
X160000Y281200D02*
X162400Y278800D01*
X112460Y281200D02*
X160000D01*
X107913Y276654D02*
X112460Y281200D01*
X97441Y146654D02*
X109252Y134843D01*
X97441Y146654D02*
Y256181D01*
X107913Y266654D01*
X87100Y255840D02*
X97913Y266654D01*
X87100Y136900D02*
Y255840D01*
Y136900D02*
X95500Y128500D01*
X110000D01*
X113300Y131800D01*
Y169180D01*
X108268Y174213D02*
X113300Y169180D01*
X109252Y119094D02*
X113300Y123142D01*
X77700Y123087D02*
X81693Y119094D01*
X77700Y123087D02*
Y230338D01*
X81614Y234252D01*
X108268Y193898D02*
X122600Y208230D01*
Y271340D01*
X127913Y276654D01*
X108268Y184055D02*
X132900Y208687D01*
Y271640D01*
X137913Y276654D01*
X245156Y76864D02*
X244157Y77864D01*
X242157D01*
X241158Y76864D01*
Y72866D01*
X242157Y71866D01*
X244157D01*
X245156Y72866D01*
X247155Y71866D02*
Y77864D01*
X251154Y71866D01*
Y77864D01*
X257152Y76864D02*
X256153Y77864D01*
X254153D01*
X253154Y76864D01*
Y72866D01*
X254153Y71866D01*
X256153D01*
X257152Y72866D01*
X263150Y77864D02*
X259152D01*
Y71866D01*
X263150D01*
X259152Y74865D02*
X261151D01*
X271148Y71866D02*
Y75865D01*
X273147Y77864D01*
X275147Y75865D01*
Y71866D01*
Y74865D01*
X271148D01*
X281144Y76864D02*
X280145Y77864D01*
X278146D01*
X277146Y76864D01*
Y75865D01*
X278146Y74865D01*
X280145D01*
X281144Y73865D01*
Y72866D01*
X280145Y71866D01*
X278146D01*
X277146Y72866D01*
X283144Y77864D02*
Y72866D01*
X284144Y71866D01*
X286143D01*
X287143Y72866D01*
Y77864D01*
D29*
X173465Y224803D02*
D03*
X143465D02*
D03*
Y194803D02*
D03*
Y174803D02*
D03*
D30*
X173465D02*
D03*
D31*
X143780Y114252D02*
Y142106D01*
X139764Y110236D02*
X143780Y114252D01*
D32*
X143465Y224803D02*
X158297D01*
X205709Y177391D01*
Y110236D02*
Y177391D01*
D33*
X143465Y194803D02*
X152500Y185768D01*
Y117185D02*
Y185768D01*
Y117185D02*
X159449Y110236D01*
X143465Y174803D02*
X149606Y168661D01*
Y110236D02*
Y168661D01*
D34*
X307087Y78740D02*
D03*
Y271654D02*
D03*
X78740Y78740D02*
D03*
Y271654D02*
D03*
D35*
X189961Y220197D02*
D03*
D36*
Y179409D02*
D03*
D37*
X257913Y266654D02*
D03*
Y276654D02*
D03*
X267913Y266654D02*
D03*
Y276654D02*
D03*
X277913Y266654D02*
D03*
Y276654D02*
D03*
X287913Y266654D02*
D03*
Y276654D02*
D03*
X247913D02*
D03*
Y266654D02*
D03*
X237913Y276654D02*
D03*
Y266654D02*
D03*
X227913Y276654D02*
D03*
Y266654D02*
D03*
X217913Y276654D02*
D03*
Y266654D02*
D03*
X207913Y276654D02*
D03*
Y266654D02*
D03*
X197913Y276654D02*
D03*
Y266654D02*
D03*
X187913Y276654D02*
D03*
Y266654D02*
D03*
X177913Y276654D02*
D03*
Y266654D02*
D03*
X167913Y276654D02*
D03*
Y266654D02*
D03*
X157913Y276654D02*
D03*
Y266654D02*
D03*
X147913Y276654D02*
D03*
Y266654D02*
D03*
X137913Y276654D02*
D03*
Y266654D02*
D03*
X127913Y276654D02*
D03*
Y266654D02*
D03*
X117913Y276654D02*
D03*
Y266654D02*
D03*
X107913Y276654D02*
D03*
Y266654D02*
D03*
X97913Y276654D02*
D03*
X158465Y144685D02*
D03*
X168465D02*
D03*
X81614Y234252D02*
D03*
X91614D02*
D03*
D38*
X97913Y266654D02*
D03*
D39*
X109252Y119094D02*
D03*
X81693D02*
D03*
X109252Y134843D02*
D03*
X81693D02*
D03*
X109252Y150591D02*
D03*
X81693D02*
D03*
D40*
X143780Y142106D02*
D03*
X138780Y149606D02*
D03*
X133780Y142106D02*
D03*
D41*
X205709Y110236D02*
D03*
X108268Y174213D02*
D03*
Y193898D02*
D03*
Y184055D02*
D03*
D42*
X195866Y110236D02*
D03*
D43*
X159449D02*
D03*
X149606D02*
D03*
D44*
X139764D02*
D03*
D45*
X108268Y203740D02*
D03*
M02*
