G04*
G04 #@! TF.GenerationSoftware,Altium Limited,Altium Designer,24.10.1 (45)*
G04*
G04 Layer_Physical_Order=2*
G04 Layer_Color=16711680*
%FSLAX25Y25*%
%MOIN*%
G70*
G04*
G04 #@! TF.SameCoordinates,1420DF00-72CD-4D5B-91A3-ABC5A96F1CF7*
G04*
G04*
G04 #@! TF.FilePolarity,Positive*
G04*
G01*
G75*
%ADD16C,0.01000*%
%ADD29C,0.06102*%
%ADD30R,0.06102X0.06102*%
%ADD31C,0.02000*%
%ADD34C,0.23622*%
%ADD35R,0.06260X0.06260*%
%ADD36C,0.06260*%
%ADD37C,0.05906*%
%ADD38R,0.05906X0.05906*%
%ADD39C,0.04953*%
%ADD40C,0.05200*%
%ADD41C,0.05512*%
%ADD42R,0.05512X0.05512*%
%ADD43C,0.06496*%
%ADD44R,0.06496X0.06496*%
%ADD45R,0.05512X0.05512*%
D16*
X143894Y146846D02*
G03*
X143896Y146848I-4086J4090D01*
G01*
X142368Y145956D02*
G03*
X141835Y145716I1411J-3850D01*
G01*
X143216Y146266D02*
G03*
X143894Y146846I-3408J4670D01*
G01*
X136272Y146363D02*
G03*
X141041Y145288I3536J4573D01*
G01*
X135951Y146363D02*
X135950D01*
X162402Y165354D02*
Y213740D01*
X143896Y146848D02*
X162402Y165354D01*
X141041Y145288D02*
X141835Y145716D01*
X142368Y145956D02*
X143216Y146266D01*
X133780Y144606D02*
X135536Y146363D01*
X135951D02*
X136272D01*
X135536D02*
X135950D01*
X143780Y142106D02*
X151273Y149600D01*
X163550D02*
X168465Y144685D01*
X151273Y149600D02*
X163550D01*
X133780Y142106D02*
Y144606D01*
X162402Y213740D02*
X173465Y224803D01*
X195866Y110236D02*
X287913Y202283D01*
Y266654D01*
X173465Y174803D02*
X183197D01*
X185700Y172300D01*
X192000D01*
X194600Y174900D01*
Y215557D01*
X189961Y220197D02*
X194600Y215557D01*
X173465Y195905D02*
X189961Y179409D01*
X173465Y195905D02*
Y224803D01*
X97913Y276654D02*
X107913D01*
X97913Y266654D02*
X102367Y262200D01*
X173460D01*
X177913Y266654D01*
X81693Y150591D02*
X97441Y134843D01*
X109252D01*
X81693D02*
X88736Y127800D01*
X141580D01*
X158465Y144685D01*
X109252Y150591D02*
X123500D01*
X124484Y149606D01*
X138780D01*
X290255Y87948D02*
X288256Y83949D01*
X286256Y87948D01*
X274260Y83949D02*
X278259D01*
X274260Y87948D01*
Y88947D01*
X275260Y89947D01*
X277259D01*
X278259Y88947D01*
X272261Y83949D02*
Y84949D01*
X271261D01*
Y83949D01*
X272261D01*
X267262Y88947D02*
X266263Y89947D01*
X264263D01*
X263264Y88947D01*
Y84949D01*
X264263Y83949D01*
X266263D01*
X267262Y84949D01*
Y88947D01*
X291323Y77864D02*
Y71866D01*
Y73865D01*
X287324Y77864D01*
X290323Y74865D01*
X287324Y71866D01*
X284325Y75865D02*
X282326D01*
X281326Y74865D01*
Y71866D01*
X284325D01*
X285325Y72866D01*
X284325Y73865D01*
X281326D01*
X275328Y75865D02*
X278327D01*
X279327Y74865D01*
Y72866D01*
X278327Y71866D01*
X275328D01*
X273329D02*
X271329D01*
X272329D01*
Y75865D01*
X273329D01*
X265331Y71866D02*
X267331D01*
X268330Y72866D01*
Y74865D01*
X267331Y75865D01*
X265331D01*
X264332Y74865D01*
Y73865D01*
X268330D01*
X256334Y71866D02*
Y77864D01*
X252335Y71866D01*
Y77864D01*
X250336Y71866D02*
X248337D01*
X249336D01*
Y75865D01*
X250336D01*
X245338Y71866D02*
X243338D01*
X244338D01*
Y75865D01*
X245338D01*
X240339Y71866D02*
Y75865D01*
X239340D01*
X238340Y74865D01*
Y71866D01*
Y74865D01*
X237340Y75865D01*
X236341Y74865D01*
Y71866D01*
X233342D02*
X231342D01*
X230343Y72866D01*
Y74865D01*
X231342Y75865D01*
X233342D01*
X234341Y74865D01*
Y72866D01*
X233342Y71866D01*
X227344Y76864D02*
Y75865D01*
X228343D01*
X226344D01*
X227344D01*
Y72866D01*
X226344Y71866D01*
X222345D02*
X220346D01*
X219346Y72866D01*
Y74865D01*
X220346Y75865D01*
X222345D01*
X223345Y74865D01*
Y72866D01*
X222345Y71866D01*
D29*
X173465Y224803D02*
D03*
X143465D02*
D03*
Y194803D02*
D03*
Y174803D02*
D03*
D30*
X173465D02*
D03*
D31*
X139764Y110236D02*
X149528Y120000D01*
X186102D01*
X195866Y110236D01*
X91614Y220394D02*
X108268Y203740D01*
X91614Y220394D02*
Y234252D01*
X282913Y271654D02*
X287913Y266654D01*
X262913Y271654D02*
X282913D01*
X257913Y276654D02*
X262913Y271654D01*
X252913D02*
X257913Y276654D01*
X242913Y271654D02*
X252913D01*
X237913Y276654D02*
X242913Y271654D01*
X232913D02*
X237913Y276654D01*
X222913Y271654D02*
X232913D01*
X217913Y266654D02*
X222913Y271654D01*
X212913D02*
X217913Y266654D01*
X192913Y271654D02*
X212913D01*
X187913Y276654D02*
X192913Y271654D01*
X182087Y282480D02*
X187913Y276654D01*
X163740Y282480D02*
X182087D01*
X157913Y276654D02*
X163740Y282480D01*
X152960Y271700D02*
X157913Y276654D01*
X142960Y271700D02*
X152960D01*
X137913Y266654D02*
X142960Y271700D01*
X132867D02*
X137913Y266654D01*
X122867Y271700D02*
X132867D01*
X117913Y276654D02*
X122867Y271700D01*
D34*
X307087Y78740D02*
D03*
Y271654D02*
D03*
X78740Y78740D02*
D03*
Y271654D02*
D03*
D35*
X189961Y220197D02*
D03*
D36*
Y179409D02*
D03*
D37*
X257913Y266654D02*
D03*
Y276654D02*
D03*
X267913Y266654D02*
D03*
Y276654D02*
D03*
X277913Y266654D02*
D03*
Y276654D02*
D03*
X287913Y266654D02*
D03*
Y276654D02*
D03*
X247913D02*
D03*
Y266654D02*
D03*
X237913Y276654D02*
D03*
Y266654D02*
D03*
X227913Y276654D02*
D03*
Y266654D02*
D03*
X217913Y276654D02*
D03*
Y266654D02*
D03*
X207913Y276654D02*
D03*
Y266654D02*
D03*
X197913Y276654D02*
D03*
Y266654D02*
D03*
X187913Y276654D02*
D03*
Y266654D02*
D03*
X177913Y276654D02*
D03*
Y266654D02*
D03*
X167913Y276654D02*
D03*
Y266654D02*
D03*
X157913Y276654D02*
D03*
Y266654D02*
D03*
X147913Y276654D02*
D03*
Y266654D02*
D03*
X137913Y276654D02*
D03*
Y266654D02*
D03*
X127913Y276654D02*
D03*
Y266654D02*
D03*
X117913Y276654D02*
D03*
Y266654D02*
D03*
X107913Y276654D02*
D03*
Y266654D02*
D03*
X97913Y276654D02*
D03*
X158465Y144685D02*
D03*
X168465D02*
D03*
X81614Y234252D02*
D03*
X91614D02*
D03*
D38*
X97913Y266654D02*
D03*
D39*
X109252Y119094D02*
D03*
X81693D02*
D03*
X109252Y134843D02*
D03*
X81693D02*
D03*
X109252Y150591D02*
D03*
X81693D02*
D03*
D40*
X143780Y142106D02*
D03*
X138780Y149606D02*
D03*
X133780Y142106D02*
D03*
D41*
X205709Y110236D02*
D03*
X108268Y174213D02*
D03*
Y193898D02*
D03*
Y184055D02*
D03*
D42*
X195866Y110236D02*
D03*
D43*
X159449D02*
D03*
X149606D02*
D03*
D44*
X139764D02*
D03*
D45*
X108268Y203740D02*
D03*
M02*
